M48
; DRILL file KiCad 10.0.1 date 2026-09-20T13:16:09
; FORMAT={-:-/ absolute / metric / decimal}
; #@! TF.CreationDate,2026-09-20T13:16:09-04:00
; #@! TF.GenerationSoftware,Kicad,Pcbnew,10.0.1
; #@! TF.FileFunction,Plated,1,2,PTH
FMAT,2
METRIC
; #@! TA.AperFunction,Plated,PTH,ViaDrill
T1C0.300
; #@! TA.AperFunction,Plated,PTH,ComponentDrill
T2C1.000
%
G90
G05
T1
X23.0Y-35.0
X32.0Y-42.3
X36.0Y-29.0
X36.0Y-42.3
T2
X20.0Y-40.0
X20.0Y-42.54
X20.0Y-45.08
X40.0Y-25.0
X40.0Y-27.54
X40.0Y-30.08
X40.0Y-32.62
X40.0Y-35.16
X40.0Y-37.7
X40.0Y-40.24
X40.0Y-42.78
X40.0Y-45.32
X40.0Y-47.86
X40.0Y-50.4
X40.0Y-52.94
X40.0Y-55.48
X40.0Y-58.02
X40.0Y-60.56
X40.0Y-63.1
X40.0Y-65.64
X40.0Y-68.18
X40.0Y-70.72
X65.4Y-25.0
X65.4Y-27.54
X65.4Y-30.08
X65.4Y-32.62
X65.4Y-35.16
X65.4Y-37.7
X65.4Y-40.24
X65.4Y-42.78
X65.4Y-45.32
X65.4Y-47.86
X65.4Y-50.4
X65.4Y-52.94
X65.4Y-55.48
X65.4Y-58.02
X65.4Y-60.56
X65.4Y-63.1
X65.4Y-65.64
X65.4Y-68.18
X65.4Y-70.72
M30
