%TF.GenerationSoftware,KiCad,Pcbnew,10.0.1*%
%TF.CreationDate,2026-09-20T13:15:48-04:00*%
%TF.ProjectId,VoltWatch,566f6c74-5761-4746-9368-2e6b69636164,rev?*%
%TF.SameCoordinates,Original*%
%TF.FileFunction,Soldermask,Bot*%
%TF.FilePolarity,Negative*%
%FSLAX46Y46*%
G04 Gerber Fmt 4.6, Leading zero omitted, Abs format (unit mm)*
G04 Created by KiCad (PCBNEW 10.0.1) date 2026-09-20 13:15:48*
%MOMM*%
%LPD*%
G01*
G04 APERTURE LIST*
%ADD10R,1.700000X1.700000*%
%ADD11O,1.700000X1.700000*%
%ADD12C,3.200000*%
G04 APERTURE END LIST*
D10*
%TO.C,U2*%
X40000000Y-25000000D03*
D11*
X40000000Y-27540000D03*
X40000000Y-30080000D03*
X40000000Y-32620000D03*
X40000000Y-35160000D03*
X40000000Y-37700000D03*
X40000000Y-40240000D03*
X40000000Y-42780000D03*
X40000000Y-45320000D03*
X40000000Y-47860000D03*
X40000000Y-50400000D03*
X40000000Y-52940000D03*
X40000000Y-55480000D03*
X40000000Y-58020000D03*
X40000000Y-60560000D03*
X40000000Y-63100000D03*
X40000000Y-65640000D03*
X40000000Y-68180000D03*
X40000000Y-70720000D03*
D10*
X65400000Y-25000000D03*
D11*
X65400000Y-27540000D03*
X65400000Y-30080000D03*
X65400000Y-32620000D03*
X65400000Y-35160000D03*
X65400000Y-37700000D03*
X65400000Y-40240000D03*
X65400000Y-42780000D03*
X65400000Y-45320000D03*
X65400000Y-47860000D03*
X65400000Y-50400000D03*
X65400000Y-52940000D03*
X65400000Y-55480000D03*
X65400000Y-58020000D03*
X65400000Y-60560000D03*
X65400000Y-63100000D03*
X65400000Y-65640000D03*
X65400000Y-68180000D03*
X65400000Y-70720000D03*
%TD*%
D10*
%TO.C,J1*%
X20000000Y-40000000D03*
D11*
X20000000Y-42540000D03*
X20000000Y-45080000D03*
%TD*%
D12*
%TO.C,H3*%
X78000000Y-26000000D03*
%TD*%
%TO.C,H1*%
X14000000Y-26000000D03*
%TD*%
%TO.C,H4*%
X78000000Y-71000000D03*
%TD*%
%TO.C,H2*%
X14000000Y-71000000D03*
%TD*%
M02*
