%TF.GenerationSoftware,KiCad,Pcbnew,10.0.1*%
%TF.CreationDate,2026-09-20T13:15:48-04:00*%
%TF.ProjectId,VoltWatch,566f6c74-5761-4746-9368-2e6b69636164,rev?*%
%TF.SameCoordinates,Original*%
%TF.FileFunction,Copper,L2,Bot*%
%TF.FilePolarity,Positive*%
%FSLAX46Y46*%
G04 Gerber Fmt 4.6, Leading zero omitted, Abs format (unit mm)*
G04 Created by KiCad (PCBNEW 10.0.1) date 2026-09-20 13:15:48*
%MOMM*%
%LPD*%
G01*
G04 APERTURE LIST*
%TA.AperFunction,ComponentPad*%
%ADD10R,1.700000X1.700000*%
%TD*%
%TA.AperFunction,ComponentPad*%
%ADD11O,1.700000X1.700000*%
%TD*%
%TA.AperFunction,ViaPad*%
%ADD12C,0.700000*%
%TD*%
G04 APERTURE END LIST*
D10*
%TO.P,U2,J2.1*%
%TO.N,/+3V3*%
X40000000Y-25000000D03*
D11*
%TO.P,U2,J2.2*%
%TO.N,unconnected-(U2-EN-PadJ2.2)*%
X40000000Y-27540000D03*
%TO.P,U2,J2.3*%
%TO.N,unconnected-(U2-VP-PadJ2.3)*%
X40000000Y-30080000D03*
%TO.P,U2,J2.4*%
%TO.N,unconnected-(U2-VN-PadJ2.4)*%
X40000000Y-32620000D03*
%TO.P,U2,J2.5*%
%TO.N,/ADC_IN*%
X40000000Y-35160000D03*
%TO.P,U2,J2.6*%
%TO.N,unconnected-(U2-GPIO35-PadJ2.6)*%
X40000000Y-37700000D03*
%TO.P,U2,J2.7*%
%TO.N,unconnected-(U2-GPIO32-PadJ2.7)*%
X40000000Y-40240000D03*
%TO.P,U2,J2.8*%
%TO.N,unconnected-(U2-GPIO33-PadJ2.8)*%
X40000000Y-42780000D03*
%TO.P,U2,J2.9*%
%TO.N,unconnected-(U2-GPIO25-PadJ2.9)*%
X40000000Y-45320000D03*
%TO.P,U2,J2.10*%
%TO.N,unconnected-(U2-GPIO26-PadJ2.10)*%
X40000000Y-47860000D03*
%TO.P,U2,J2.11*%
%TO.N,unconnected-(U2-GPIO27-PadJ2.11)*%
X40000000Y-50400000D03*
%TO.P,U2,J2.12*%
%TO.N,unconnected-(U2-GPIO14-PadJ2.12)*%
X40000000Y-52940000D03*
%TO.P,U2,J2.13*%
%TO.N,unconnected-(U2-GPIO12-PadJ2.13)*%
X40000000Y-55480000D03*
%TO.P,U2,J2.14*%
%TO.N,/GND*%
X40000000Y-58020000D03*
%TO.P,U2,J2.15*%
%TO.N,unconnected-(U2-GPIO13-PadJ2.15)*%
X40000000Y-60560000D03*
%TO.P,U2,J2.16*%
%TO.N,unconnected-(U2-D2-PadJ2.16)*%
X40000000Y-63100000D03*
%TO.P,U2,J2.17*%
%TO.N,unconnected-(U2-D3-PadJ2.17)*%
X40000000Y-65640000D03*
%TO.P,U2,J2.18*%
%TO.N,unconnected-(U2-CMD-PadJ2.18)*%
X40000000Y-68180000D03*
%TO.P,U2,J2.19*%
%TO.N,/+5V*%
X40000000Y-70720000D03*
D10*
%TO.P,U2,J3.1*%
%TO.N,/GND*%
X65400000Y-25000000D03*
D11*
%TO.P,U2,J3.2*%
%TO.N,unconnected-(U2-GPIO23-PadJ3.2)*%
X65400000Y-27540000D03*
%TO.P,U2,J3.3*%
%TO.N,unconnected-(U2-GPIO22-PadJ3.3)*%
X65400000Y-30080000D03*
%TO.P,U2,J3.4*%
%TO.N,unconnected-(U2-TX-PadJ3.4)*%
X65400000Y-32620000D03*
%TO.P,U2,J3.5*%
%TO.N,unconnected-(U2-RX-PadJ3.5)*%
X65400000Y-35160000D03*
%TO.P,U2,J3.6*%
%TO.N,unconnected-(U2-GPIO21-PadJ3.6)*%
X65400000Y-37700000D03*
%TO.P,U2,J3.7*%
%TO.N,/GND*%
X65400000Y-40240000D03*
%TO.P,U2,J3.8*%
%TO.N,unconnected-(U2-GPIO19-PadJ3.8)*%
X65400000Y-42780000D03*
%TO.P,U2,J3.9*%
%TO.N,unconnected-(U2-GPIO18-PadJ3.9)*%
X65400000Y-45320000D03*
%TO.P,U2,J3.10*%
%TO.N,unconnected-(U2-GPIO5-PadJ3.10)*%
X65400000Y-47860000D03*
%TO.P,U2,J3.11*%
%TO.N,unconnected-(U2-GPIO17-PadJ3.11)*%
X65400000Y-50400000D03*
%TO.P,U2,J3.12*%
%TO.N,unconnected-(U2-GPIO16-PadJ3.12)*%
X65400000Y-52940000D03*
%TO.P,U2,J3.13*%
%TO.N,unconnected-(U2-GPIO4-PadJ3.13)*%
X65400000Y-55480000D03*
%TO.P,U2,J3.14*%
%TO.N,unconnected-(U2-GPIO0-PadJ3.14)*%
X65400000Y-58020000D03*
%TO.P,U2,J3.15*%
%TO.N,unconnected-(U2-GPIO2-PadJ3.15)*%
X65400000Y-60560000D03*
%TO.P,U2,J3.16*%
%TO.N,unconnected-(U2-GPIO15-PadJ3.16)*%
X65400000Y-63100000D03*
%TO.P,U2,J3.17*%
%TO.N,unconnected-(U2-D1-PadJ3.17)*%
X65400000Y-65640000D03*
%TO.P,U2,J3.18*%
%TO.N,unconnected-(U2-D0-PadJ3.18)*%
X65400000Y-68180000D03*
%TO.P,U2,J3.19*%
%TO.N,unconnected-(U2-CLK-PadJ3.19)*%
X65400000Y-70720000D03*
%TD*%
D10*
%TO.P,J1,1*%
%TO.N,/+5V*%
X20000000Y-40000000D03*
D11*
%TO.P,J1,2*%
%TO.N,/SENSOR_OUT*%
X20000000Y-42540000D03*
%TO.P,J1,3*%
%TO.N,/GND*%
X20000000Y-45080000D03*
%TD*%
D12*
%TO.N,/GND*%
X36000000Y-42300000D03*
X36000000Y-29000000D03*
X23000000Y-35000000D03*
X32000000Y-42300000D03*
%TD*%
%TA.AperFunction,Conductor*%
%TO.N,/GND*%
G36*
X41943039Y-22520185D02*
G01*
X41988794Y-22572989D01*
X42000000Y-22624500D01*
X42000000Y-37000000D01*
X63400000Y-37000000D01*
X63400000Y-35073389D01*
X64299500Y-35073389D01*
X64299500Y-35246611D01*
X64326598Y-35417701D01*
X64380127Y-35582445D01*
X64458768Y-35736788D01*
X64560586Y-35876928D01*
X64683072Y-35999414D01*
X64823212Y-36101232D01*
X64977555Y-36179873D01*
X65142299Y-36233402D01*
X65313389Y-36260500D01*
X65313390Y-36260500D01*
X65486610Y-36260500D01*
X65486611Y-36260500D01*
X65657701Y-36233402D01*
X65822445Y-36179873D01*
X65976788Y-36101232D01*
X66116928Y-35999414D01*
X66239414Y-35876928D01*
X66341232Y-35736788D01*
X66419873Y-35582445D01*
X66473402Y-35417701D01*
X66500500Y-35246611D01*
X66500500Y-35073389D01*
X66473402Y-34902299D01*
X66419873Y-34737555D01*
X66341232Y-34583212D01*
X66239414Y-34443072D01*
X66116928Y-34320586D01*
X65976788Y-34218768D01*
X65822445Y-34140127D01*
X65657701Y-34086598D01*
X65657699Y-34086597D01*
X65657698Y-34086597D01*
X65526271Y-34065781D01*
X65486611Y-34059500D01*
X65313389Y-34059500D01*
X65273728Y-34065781D01*
X65142302Y-34086597D01*
X64977552Y-34140128D01*
X64823211Y-34218768D01*
X64743256Y-34276859D01*
X64683072Y-34320586D01*
X64683070Y-34320588D01*
X64683069Y-34320588D01*
X64560588Y-34443069D01*
X64560588Y-34443070D01*
X64560586Y-34443072D01*
X64516859Y-34503256D01*
X64458768Y-34583211D01*
X64380128Y-34737552D01*
X64326597Y-34902302D01*
X64299500Y-35073389D01*
X63400000Y-35073389D01*
X63400000Y-32533389D01*
X64299500Y-32533389D01*
X64299500Y-32706611D01*
X64326598Y-32877701D01*
X64380127Y-33042445D01*
X64458768Y-33196788D01*
X64560586Y-33336928D01*
X64683072Y-33459414D01*
X64823212Y-33561232D01*
X64977555Y-33639873D01*
X65142299Y-33693402D01*
X65313389Y-33720500D01*
X65313390Y-33720500D01*
X65486610Y-33720500D01*
X65486611Y-33720500D01*
X65657701Y-33693402D01*
X65822445Y-33639873D01*
X65976788Y-33561232D01*
X66116928Y-33459414D01*
X66239414Y-33336928D01*
X66341232Y-33196788D01*
X66419873Y-33042445D01*
X66473402Y-32877701D01*
X66500500Y-32706611D01*
X66500500Y-32533389D01*
X66473402Y-32362299D01*
X66419873Y-32197555D01*
X66341232Y-32043212D01*
X66239414Y-31903072D01*
X66116928Y-31780586D01*
X65976788Y-31678768D01*
X65822445Y-31600127D01*
X65657701Y-31546598D01*
X65657699Y-31546597D01*
X65657698Y-31546597D01*
X65526271Y-31525781D01*
X65486611Y-31519500D01*
X65313389Y-31519500D01*
X65273728Y-31525781D01*
X65142302Y-31546597D01*
X64977552Y-31600128D01*
X64823211Y-31678768D01*
X64743256Y-31736859D01*
X64683072Y-31780586D01*
X64683070Y-31780588D01*
X64683069Y-31780588D01*
X64560588Y-31903069D01*
X64560588Y-31903070D01*
X64560586Y-31903072D01*
X64516859Y-31963256D01*
X64458768Y-32043211D01*
X64380128Y-32197552D01*
X64326597Y-32362302D01*
X64299500Y-32533389D01*
X63400000Y-32533389D01*
X63400000Y-29993389D01*
X64299500Y-29993389D01*
X64299500Y-30166611D01*
X64326598Y-30337701D01*
X64380127Y-30502445D01*
X64458768Y-30656788D01*
X64560586Y-30796928D01*
X64683072Y-30919414D01*
X64823212Y-31021232D01*
X64977555Y-31099873D01*
X65142299Y-31153402D01*
X65313389Y-31180500D01*
X65313390Y-31180500D01*
X65486610Y-31180500D01*
X65486611Y-31180500D01*
X65657701Y-31153402D01*
X65822445Y-31099873D01*
X65976788Y-31021232D01*
X66116928Y-30919414D01*
X66239414Y-30796928D01*
X66341232Y-30656788D01*
X66419873Y-30502445D01*
X66473402Y-30337701D01*
X66500500Y-30166611D01*
X66500500Y-29993389D01*
X66473402Y-29822299D01*
X66419873Y-29657555D01*
X66341232Y-29503212D01*
X66239414Y-29363072D01*
X66116928Y-29240586D01*
X65976788Y-29138768D01*
X65822445Y-29060127D01*
X65657701Y-29006598D01*
X65657699Y-29006597D01*
X65657698Y-29006597D01*
X65526271Y-28985781D01*
X65486611Y-28979500D01*
X65313389Y-28979500D01*
X65273728Y-28985781D01*
X65142302Y-29006597D01*
X64977552Y-29060128D01*
X64823211Y-29138768D01*
X64743256Y-29196859D01*
X64683072Y-29240586D01*
X64683070Y-29240588D01*
X64683069Y-29240588D01*
X64560588Y-29363069D01*
X64560588Y-29363070D01*
X64560586Y-29363072D01*
X64516859Y-29423256D01*
X64458768Y-29503211D01*
X64380128Y-29657552D01*
X64326597Y-29822302D01*
X64299500Y-29993389D01*
X63400000Y-29993389D01*
X63400000Y-27453389D01*
X64299500Y-27453389D01*
X64299500Y-27626611D01*
X64326598Y-27797701D01*
X64380127Y-27962445D01*
X64458768Y-28116788D01*
X64560586Y-28256928D01*
X64683072Y-28379414D01*
X64823212Y-28481232D01*
X64977555Y-28559873D01*
X65142299Y-28613402D01*
X65313389Y-28640500D01*
X65313390Y-28640500D01*
X65486610Y-28640500D01*
X65486611Y-28640500D01*
X65657701Y-28613402D01*
X65822445Y-28559873D01*
X65976788Y-28481232D01*
X66116928Y-28379414D01*
X66239414Y-28256928D01*
X66341232Y-28116788D01*
X66419873Y-27962445D01*
X66473402Y-27797701D01*
X66500500Y-27626611D01*
X66500500Y-27453389D01*
X66473402Y-27282299D01*
X66419873Y-27117555D01*
X66341232Y-26963212D01*
X66239414Y-26823072D01*
X66116928Y-26700586D01*
X65976788Y-26598768D01*
X65822445Y-26520127D01*
X65657701Y-26466598D01*
X65657699Y-26466597D01*
X65657698Y-26466597D01*
X65526271Y-26445781D01*
X65486611Y-26439500D01*
X65313389Y-26439500D01*
X65273728Y-26445781D01*
X65142302Y-26466597D01*
X64977552Y-26520128D01*
X64823211Y-26598768D01*
X64743256Y-26656859D01*
X64683072Y-26700586D01*
X64683070Y-26700588D01*
X64683069Y-26700588D01*
X64560588Y-26823069D01*
X64560588Y-26823070D01*
X64560586Y-26823072D01*
X64516859Y-26883256D01*
X64458768Y-26963211D01*
X64380128Y-27117552D01*
X64326597Y-27282302D01*
X64314159Y-27360836D01*
X64299500Y-27453389D01*
X63400000Y-27453389D01*
X63400000Y-24125371D01*
X64300000Y-24125371D01*
X64300000Y-24850000D01*
X64922555Y-24850000D01*
X64900000Y-24934174D01*
X64900000Y-25065826D01*
X64922555Y-25150000D01*
X64300000Y-25150000D01*
X64300000Y-25874628D01*
X64314503Y-25947540D01*
X64314505Y-25947544D01*
X64369760Y-26030239D01*
X64452455Y-26085494D01*
X64452459Y-26085496D01*
X64525371Y-26099999D01*
X64525374Y-26100000D01*
X65250000Y-26100000D01*
X65250000Y-25477445D01*
X65334174Y-25500000D01*
X65465826Y-25500000D01*
X65550000Y-25477445D01*
X65550000Y-26100000D01*
X66274626Y-26100000D01*
X66274628Y-26099999D01*
X66347540Y-26085496D01*
X66347544Y-26085494D01*
X66430239Y-26030239D01*
X66485494Y-25947544D01*
X66485496Y-25947540D01*
X66499187Y-25878711D01*
X76149500Y-25878711D01*
X76149500Y-26121288D01*
X76181161Y-26361785D01*
X76243947Y-26596104D01*
X76287225Y-26700586D01*
X76336776Y-26820212D01*
X76458064Y-27030289D01*
X76458066Y-27030292D01*
X76458067Y-27030293D01*
X76605733Y-27222736D01*
X76605739Y-27222743D01*
X76777256Y-27394260D01*
X76777262Y-27394265D01*
X76969711Y-27541936D01*
X77179788Y-27663224D01*
X77403900Y-27756054D01*
X77638211Y-27818838D01*
X77818586Y-27842584D01*
X77878711Y-27850500D01*
X77878712Y-27850500D01*
X78121289Y-27850500D01*
X78169388Y-27844167D01*
X78361789Y-27818838D01*
X78596100Y-27756054D01*
X78820212Y-27663224D01*
X79030289Y-27541936D01*
X79222738Y-27394265D01*
X79394265Y-27222738D01*
X79541936Y-27030289D01*
X79663224Y-26820212D01*
X79756054Y-26596100D01*
X79818838Y-26361789D01*
X79850500Y-26121288D01*
X79850500Y-25878712D01*
X79849968Y-25874674D01*
X79818838Y-25638214D01*
X79818838Y-25638211D01*
X79756054Y-25403900D01*
X79663224Y-25179788D01*
X79541936Y-24969711D01*
X79394265Y-24777262D01*
X79394260Y-24777256D01*
X79222743Y-24605739D01*
X79222736Y-24605733D01*
X79030293Y-24458067D01*
X79030292Y-24458066D01*
X79030289Y-24458064D01*
X78820212Y-24336776D01*
X78820205Y-24336773D01*
X78596104Y-24243947D01*
X78361785Y-24181161D01*
X78121289Y-24149500D01*
X78121288Y-24149500D01*
X77878712Y-24149500D01*
X77878711Y-24149500D01*
X77638214Y-24181161D01*
X77403895Y-24243947D01*
X77179794Y-24336773D01*
X77179785Y-24336777D01*
X76969706Y-24458067D01*
X76777263Y-24605733D01*
X76777256Y-24605739D01*
X76605739Y-24777256D01*
X76605733Y-24777263D01*
X76458067Y-24969706D01*
X76336777Y-25179785D01*
X76336773Y-25179794D01*
X76243947Y-25403895D01*
X76181161Y-25638214D01*
X76149500Y-25878711D01*
X66499187Y-25878711D01*
X66499999Y-25874628D01*
X66500000Y-25874626D01*
X66500000Y-25150000D01*
X65877445Y-25150000D01*
X65900000Y-25065826D01*
X65900000Y-24934174D01*
X65877445Y-24850000D01*
X66500000Y-24850000D01*
X66500000Y-24125373D01*
X66499999Y-24125371D01*
X66485496Y-24052459D01*
X66485494Y-24052455D01*
X66430239Y-23969760D01*
X66347544Y-23914505D01*
X66347540Y-23914503D01*
X66274627Y-23900000D01*
X65550000Y-23900000D01*
X65550000Y-24522554D01*
X65465826Y-24500000D01*
X65334174Y-24500000D01*
X65250000Y-24522554D01*
X65250000Y-23900000D01*
X64525373Y-23900000D01*
X64452459Y-23914503D01*
X64452455Y-23914505D01*
X64369760Y-23969760D01*
X64314505Y-24052455D01*
X64314503Y-24052459D01*
X64300000Y-24125371D01*
X63400000Y-24125371D01*
X63400000Y-22624500D01*
X63419685Y-22557461D01*
X63472489Y-22511706D01*
X63524000Y-22500500D01*
X81375500Y-22500500D01*
X81442539Y-22520185D01*
X81488294Y-22572989D01*
X81499500Y-22624500D01*
X81499500Y-74375500D01*
X81479815Y-74442539D01*
X81427011Y-74488294D01*
X81375500Y-74499500D01*
X10624500Y-74499500D01*
X10557461Y-74479815D01*
X10511706Y-74427011D01*
X10500500Y-74375500D01*
X10500500Y-70878711D01*
X12149500Y-70878711D01*
X12149500Y-71121288D01*
X12181161Y-71361785D01*
X12243947Y-71596104D01*
X12325671Y-71793402D01*
X12336776Y-71820212D01*
X12458064Y-72030289D01*
X12458066Y-72030292D01*
X12458067Y-72030293D01*
X12605733Y-72222736D01*
X12605739Y-72222743D01*
X12777256Y-72394260D01*
X12777262Y-72394265D01*
X12969711Y-72541936D01*
X13179788Y-72663224D01*
X13403900Y-72756054D01*
X13638211Y-72818838D01*
X13818586Y-72842584D01*
X13878711Y-72850500D01*
X13878712Y-72850500D01*
X14121289Y-72850500D01*
X14169388Y-72844167D01*
X14361789Y-72818838D01*
X14596100Y-72756054D01*
X14820212Y-72663224D01*
X15030289Y-72541936D01*
X15222738Y-72394265D01*
X15394265Y-72222738D01*
X15541936Y-72030289D01*
X15663224Y-71820212D01*
X15756054Y-71596100D01*
X15818838Y-71361789D01*
X15850500Y-71121288D01*
X15850500Y-70878712D01*
X15818838Y-70638211D01*
X15817546Y-70633389D01*
X38899500Y-70633389D01*
X38899500Y-70806610D01*
X38910919Y-70878711D01*
X38926598Y-70977701D01*
X38980127Y-71142445D01*
X39058768Y-71296788D01*
X39160586Y-71436928D01*
X39283072Y-71559414D01*
X39423212Y-71661232D01*
X39577555Y-71739873D01*
X39742299Y-71793402D01*
X39913389Y-71820500D01*
X39913390Y-71820500D01*
X40086610Y-71820500D01*
X40086611Y-71820500D01*
X40257701Y-71793402D01*
X40422445Y-71739873D01*
X40576788Y-71661232D01*
X40716928Y-71559414D01*
X40839414Y-71436928D01*
X40941232Y-71296788D01*
X41019873Y-71142445D01*
X41073402Y-70977701D01*
X41100500Y-70806611D01*
X41100500Y-70633389D01*
X64299500Y-70633389D01*
X64299500Y-70806610D01*
X64310919Y-70878711D01*
X64326598Y-70977701D01*
X64380127Y-71142445D01*
X64458768Y-71296788D01*
X64560586Y-71436928D01*
X64683072Y-71559414D01*
X64823212Y-71661232D01*
X64977555Y-71739873D01*
X65142299Y-71793402D01*
X65313389Y-71820500D01*
X65313390Y-71820500D01*
X65486610Y-71820500D01*
X65486611Y-71820500D01*
X65657701Y-71793402D01*
X65822445Y-71739873D01*
X65976788Y-71661232D01*
X66116928Y-71559414D01*
X66239414Y-71436928D01*
X66341232Y-71296788D01*
X66419873Y-71142445D01*
X66473402Y-70977701D01*
X66489080Y-70878711D01*
X76149500Y-70878711D01*
X76149500Y-71121288D01*
X76181161Y-71361785D01*
X76243947Y-71596104D01*
X76325671Y-71793402D01*
X76336776Y-71820212D01*
X76458064Y-72030289D01*
X76458066Y-72030292D01*
X76458067Y-72030293D01*
X76605733Y-72222736D01*
X76605739Y-72222743D01*
X76777256Y-72394260D01*
X76777262Y-72394265D01*
X76969711Y-72541936D01*
X77179788Y-72663224D01*
X77403900Y-72756054D01*
X77638211Y-72818838D01*
X77818586Y-72842584D01*
X77878711Y-72850500D01*
X77878712Y-72850500D01*
X78121289Y-72850500D01*
X78169388Y-72844167D01*
X78361789Y-72818838D01*
X78596100Y-72756054D01*
X78820212Y-72663224D01*
X79030289Y-72541936D01*
X79222738Y-72394265D01*
X79394265Y-72222738D01*
X79541936Y-72030289D01*
X79663224Y-71820212D01*
X79756054Y-71596100D01*
X79818838Y-71361789D01*
X79850500Y-71121288D01*
X79850500Y-70878712D01*
X79818838Y-70638211D01*
X79756054Y-70403900D01*
X79663224Y-70179788D01*
X79541936Y-69969711D01*
X79394265Y-69777262D01*
X79394260Y-69777256D01*
X79222743Y-69605739D01*
X79222736Y-69605733D01*
X79030293Y-69458067D01*
X79030292Y-69458066D01*
X79030289Y-69458064D01*
X78820212Y-69336776D01*
X78820205Y-69336773D01*
X78596104Y-69243947D01*
X78361785Y-69181161D01*
X78121289Y-69149500D01*
X78121288Y-69149500D01*
X77878712Y-69149500D01*
X77878711Y-69149500D01*
X77638214Y-69181161D01*
X77403895Y-69243947D01*
X77179794Y-69336773D01*
X77179785Y-69336777D01*
X76969706Y-69458067D01*
X76777263Y-69605733D01*
X76777256Y-69605739D01*
X76605739Y-69777256D01*
X76605733Y-69777263D01*
X76458067Y-69969706D01*
X76336777Y-70179785D01*
X76336773Y-70179794D01*
X76243947Y-70403895D01*
X76181161Y-70638214D01*
X76149500Y-70878711D01*
X66489080Y-70878711D01*
X66500500Y-70806611D01*
X66500500Y-70633389D01*
X66473402Y-70462299D01*
X66419873Y-70297555D01*
X66341232Y-70143212D01*
X66239414Y-70003072D01*
X66116928Y-69880586D01*
X65976788Y-69778768D01*
X65822445Y-69700127D01*
X65657701Y-69646598D01*
X65657699Y-69646597D01*
X65657698Y-69646597D01*
X65526271Y-69625781D01*
X65486611Y-69619500D01*
X65313389Y-69619500D01*
X65273728Y-69625781D01*
X65142302Y-69646597D01*
X64977552Y-69700128D01*
X64823211Y-69778768D01*
X64743256Y-69836859D01*
X64683072Y-69880586D01*
X64683070Y-69880588D01*
X64683069Y-69880588D01*
X64560588Y-70003069D01*
X64560588Y-70003070D01*
X64560586Y-70003072D01*
X64516859Y-70063256D01*
X64458768Y-70143211D01*
X64380128Y-70297552D01*
X64326597Y-70462302D01*
X64299500Y-70633389D01*
X41100500Y-70633389D01*
X41073402Y-70462299D01*
X41019873Y-70297555D01*
X40941232Y-70143212D01*
X40839414Y-70003072D01*
X40716928Y-69880586D01*
X40576788Y-69778768D01*
X40422445Y-69700127D01*
X40257701Y-69646598D01*
X40257699Y-69646597D01*
X40257698Y-69646597D01*
X40126271Y-69625781D01*
X40086611Y-69619500D01*
X39913389Y-69619500D01*
X39873728Y-69625781D01*
X39742302Y-69646597D01*
X39577552Y-69700128D01*
X39423211Y-69778768D01*
X39343256Y-69836859D01*
X39283072Y-69880586D01*
X39283070Y-69880588D01*
X39283069Y-69880588D01*
X39160588Y-70003069D01*
X39160588Y-70003070D01*
X39160586Y-70003072D01*
X39116859Y-70063256D01*
X39058768Y-70143211D01*
X38980128Y-70297552D01*
X38926597Y-70462302D01*
X38899500Y-70633389D01*
X15817546Y-70633389D01*
X15756054Y-70403900D01*
X15663224Y-70179788D01*
X15541936Y-69969711D01*
X15394265Y-69777262D01*
X15394260Y-69777256D01*
X15222743Y-69605739D01*
X15222736Y-69605733D01*
X15030293Y-69458067D01*
X15030292Y-69458066D01*
X15030289Y-69458064D01*
X14820212Y-69336776D01*
X14820205Y-69336773D01*
X14596104Y-69243947D01*
X14361785Y-69181161D01*
X14121289Y-69149500D01*
X14121288Y-69149500D01*
X13878712Y-69149500D01*
X13878711Y-69149500D01*
X13638214Y-69181161D01*
X13403895Y-69243947D01*
X13179794Y-69336773D01*
X13179785Y-69336777D01*
X12969706Y-69458067D01*
X12777263Y-69605733D01*
X12777256Y-69605739D01*
X12605739Y-69777256D01*
X12605733Y-69777263D01*
X12458067Y-69969706D01*
X12336777Y-70179785D01*
X12336773Y-70179794D01*
X12243947Y-70403895D01*
X12181161Y-70638214D01*
X12149500Y-70878711D01*
X10500500Y-70878711D01*
X10500500Y-68093389D01*
X38899500Y-68093389D01*
X38899500Y-68266611D01*
X38926598Y-68437701D01*
X38980127Y-68602445D01*
X39058768Y-68756788D01*
X39160586Y-68896928D01*
X39283072Y-69019414D01*
X39423212Y-69121232D01*
X39577555Y-69199873D01*
X39742299Y-69253402D01*
X39913389Y-69280500D01*
X39913390Y-69280500D01*
X40086610Y-69280500D01*
X40086611Y-69280500D01*
X40257701Y-69253402D01*
X40422445Y-69199873D01*
X40576788Y-69121232D01*
X40716928Y-69019414D01*
X40839414Y-68896928D01*
X40941232Y-68756788D01*
X41019873Y-68602445D01*
X41073402Y-68437701D01*
X41100500Y-68266611D01*
X41100500Y-68093389D01*
X64299500Y-68093389D01*
X64299500Y-68266611D01*
X64326598Y-68437701D01*
X64380127Y-68602445D01*
X64458768Y-68756788D01*
X64560586Y-68896928D01*
X64683072Y-69019414D01*
X64823212Y-69121232D01*
X64977555Y-69199873D01*
X65142299Y-69253402D01*
X65313389Y-69280500D01*
X65313390Y-69280500D01*
X65486610Y-69280500D01*
X65486611Y-69280500D01*
X65657701Y-69253402D01*
X65822445Y-69199873D01*
X65976788Y-69121232D01*
X66116928Y-69019414D01*
X66239414Y-68896928D01*
X66341232Y-68756788D01*
X66419873Y-68602445D01*
X66473402Y-68437701D01*
X66500500Y-68266611D01*
X66500500Y-68093389D01*
X66473402Y-67922299D01*
X66419873Y-67757555D01*
X66341232Y-67603212D01*
X66239414Y-67463072D01*
X66116928Y-67340586D01*
X65976788Y-67238768D01*
X65822445Y-67160127D01*
X65657701Y-67106598D01*
X65657699Y-67106597D01*
X65657698Y-67106597D01*
X65526271Y-67085781D01*
X65486611Y-67079500D01*
X65313389Y-67079500D01*
X65273728Y-67085781D01*
X65142302Y-67106597D01*
X64977552Y-67160128D01*
X64823211Y-67238768D01*
X64743256Y-67296859D01*
X64683072Y-67340586D01*
X64683070Y-67340588D01*
X64683069Y-67340588D01*
X64560588Y-67463069D01*
X64560588Y-67463070D01*
X64560586Y-67463072D01*
X64516859Y-67523256D01*
X64458768Y-67603211D01*
X64380128Y-67757552D01*
X64326597Y-67922302D01*
X64299500Y-68093389D01*
X41100500Y-68093389D01*
X41073402Y-67922299D01*
X41019873Y-67757555D01*
X40941232Y-67603212D01*
X40839414Y-67463072D01*
X40716928Y-67340586D01*
X40576788Y-67238768D01*
X40422445Y-67160127D01*
X40257701Y-67106598D01*
X40257699Y-67106597D01*
X40257698Y-67106597D01*
X40126271Y-67085781D01*
X40086611Y-67079500D01*
X39913389Y-67079500D01*
X39873728Y-67085781D01*
X39742302Y-67106597D01*
X39577552Y-67160128D01*
X39423211Y-67238768D01*
X39343256Y-67296859D01*
X39283072Y-67340586D01*
X39283070Y-67340588D01*
X39283069Y-67340588D01*
X39160588Y-67463069D01*
X39160588Y-67463070D01*
X39160586Y-67463072D01*
X39116859Y-67523256D01*
X39058768Y-67603211D01*
X38980128Y-67757552D01*
X38926597Y-67922302D01*
X38899500Y-68093389D01*
X10500500Y-68093389D01*
X10500500Y-65553389D01*
X38899500Y-65553389D01*
X38899500Y-65726611D01*
X38926598Y-65897701D01*
X38980127Y-66062445D01*
X39058768Y-66216788D01*
X39160586Y-66356928D01*
X39283072Y-66479414D01*
X39423212Y-66581232D01*
X39577555Y-66659873D01*
X39742299Y-66713402D01*
X39913389Y-66740500D01*
X39913390Y-66740500D01*
X40086610Y-66740500D01*
X40086611Y-66740500D01*
X40257701Y-66713402D01*
X40422445Y-66659873D01*
X40576788Y-66581232D01*
X40716928Y-66479414D01*
X40839414Y-66356928D01*
X40941232Y-66216788D01*
X41019873Y-66062445D01*
X41073402Y-65897701D01*
X41100500Y-65726611D01*
X41100500Y-65553389D01*
X64299500Y-65553389D01*
X64299500Y-65726611D01*
X64326598Y-65897701D01*
X64380127Y-66062445D01*
X64458768Y-66216788D01*
X64560586Y-66356928D01*
X64683072Y-66479414D01*
X64823212Y-66581232D01*
X64977555Y-66659873D01*
X65142299Y-66713402D01*
X65313389Y-66740500D01*
X65313390Y-66740500D01*
X65486610Y-66740500D01*
X65486611Y-66740500D01*
X65657701Y-66713402D01*
X65822445Y-66659873D01*
X65976788Y-66581232D01*
X66116928Y-66479414D01*
X66239414Y-66356928D01*
X66341232Y-66216788D01*
X66419873Y-66062445D01*
X66473402Y-65897701D01*
X66500500Y-65726611D01*
X66500500Y-65553389D01*
X66473402Y-65382299D01*
X66419873Y-65217555D01*
X66341232Y-65063212D01*
X66239414Y-64923072D01*
X66116928Y-64800586D01*
X65976788Y-64698768D01*
X65822445Y-64620127D01*
X65657701Y-64566598D01*
X65657699Y-64566597D01*
X65657698Y-64566597D01*
X65526271Y-64545781D01*
X65486611Y-64539500D01*
X65313389Y-64539500D01*
X65273728Y-64545781D01*
X65142302Y-64566597D01*
X64977552Y-64620128D01*
X64823211Y-64698768D01*
X64743256Y-64756859D01*
X64683072Y-64800586D01*
X64683070Y-64800588D01*
X64683069Y-64800588D01*
X64560588Y-64923069D01*
X64560588Y-64923070D01*
X64560586Y-64923072D01*
X64516859Y-64983256D01*
X64458768Y-65063211D01*
X64380128Y-65217552D01*
X64326597Y-65382302D01*
X64299500Y-65553389D01*
X41100500Y-65553389D01*
X41073402Y-65382299D01*
X41019873Y-65217555D01*
X40941232Y-65063212D01*
X40839414Y-64923072D01*
X40716928Y-64800586D01*
X40576788Y-64698768D01*
X40422445Y-64620127D01*
X40257701Y-64566598D01*
X40257699Y-64566597D01*
X40257698Y-64566597D01*
X40126271Y-64545781D01*
X40086611Y-64539500D01*
X39913389Y-64539500D01*
X39873728Y-64545781D01*
X39742302Y-64566597D01*
X39577552Y-64620128D01*
X39423211Y-64698768D01*
X39343256Y-64756859D01*
X39283072Y-64800586D01*
X39283070Y-64800588D01*
X39283069Y-64800588D01*
X39160588Y-64923069D01*
X39160588Y-64923070D01*
X39160586Y-64923072D01*
X39116859Y-64983256D01*
X39058768Y-65063211D01*
X38980128Y-65217552D01*
X38926597Y-65382302D01*
X38899500Y-65553389D01*
X10500500Y-65553389D01*
X10500500Y-63013389D01*
X38899500Y-63013389D01*
X38899500Y-63186611D01*
X38926598Y-63357701D01*
X38980127Y-63522445D01*
X39058768Y-63676788D01*
X39160586Y-63816928D01*
X39283072Y-63939414D01*
X39423212Y-64041232D01*
X39577555Y-64119873D01*
X39742299Y-64173402D01*
X39913389Y-64200500D01*
X39913390Y-64200500D01*
X40086610Y-64200500D01*
X40086611Y-64200500D01*
X40257701Y-64173402D01*
X40422445Y-64119873D01*
X40576788Y-64041232D01*
X40716928Y-63939414D01*
X40839414Y-63816928D01*
X40941232Y-63676788D01*
X41019873Y-63522445D01*
X41073402Y-63357701D01*
X41100500Y-63186611D01*
X41100500Y-63013389D01*
X64299500Y-63013389D01*
X64299500Y-63186611D01*
X64326598Y-63357701D01*
X64380127Y-63522445D01*
X64458768Y-63676788D01*
X64560586Y-63816928D01*
X64683072Y-63939414D01*
X64823212Y-64041232D01*
X64977555Y-64119873D01*
X65142299Y-64173402D01*
X65313389Y-64200500D01*
X65313390Y-64200500D01*
X65486610Y-64200500D01*
X65486611Y-64200500D01*
X65657701Y-64173402D01*
X65822445Y-64119873D01*
X65976788Y-64041232D01*
X66116928Y-63939414D01*
X66239414Y-63816928D01*
X66341232Y-63676788D01*
X66419873Y-63522445D01*
X66473402Y-63357701D01*
X66500500Y-63186611D01*
X66500500Y-63013389D01*
X66473402Y-62842299D01*
X66419873Y-62677555D01*
X66341232Y-62523212D01*
X66239414Y-62383072D01*
X66116928Y-62260586D01*
X65976788Y-62158768D01*
X65822445Y-62080127D01*
X65657701Y-62026598D01*
X65657699Y-62026597D01*
X65657698Y-62026597D01*
X65526271Y-62005781D01*
X65486611Y-61999500D01*
X65313389Y-61999500D01*
X65273728Y-62005781D01*
X65142302Y-62026597D01*
X64977552Y-62080128D01*
X64823211Y-62158768D01*
X64743256Y-62216859D01*
X64683072Y-62260586D01*
X64683070Y-62260588D01*
X64683069Y-62260588D01*
X64560588Y-62383069D01*
X64560588Y-62383070D01*
X64560586Y-62383072D01*
X64516859Y-62443256D01*
X64458768Y-62523211D01*
X64380128Y-62677552D01*
X64326597Y-62842302D01*
X64299500Y-63013389D01*
X41100500Y-63013389D01*
X41073402Y-62842299D01*
X41019873Y-62677555D01*
X40941232Y-62523212D01*
X40839414Y-62383072D01*
X40716928Y-62260586D01*
X40576788Y-62158768D01*
X40422445Y-62080127D01*
X40257701Y-62026598D01*
X40257699Y-62026597D01*
X40257698Y-62026597D01*
X40126271Y-62005781D01*
X40086611Y-61999500D01*
X39913389Y-61999500D01*
X39873728Y-62005781D01*
X39742302Y-62026597D01*
X39577552Y-62080128D01*
X39423211Y-62158768D01*
X39343256Y-62216859D01*
X39283072Y-62260586D01*
X39283070Y-62260588D01*
X39283069Y-62260588D01*
X39160588Y-62383069D01*
X39160588Y-62383070D01*
X39160586Y-62383072D01*
X39116859Y-62443256D01*
X39058768Y-62523211D01*
X38980128Y-62677552D01*
X38926597Y-62842302D01*
X38899500Y-63013389D01*
X10500500Y-63013389D01*
X10500500Y-60473389D01*
X38899500Y-60473389D01*
X38899500Y-60646611D01*
X38926598Y-60817701D01*
X38980127Y-60982445D01*
X39058768Y-61136788D01*
X39160586Y-61276928D01*
X39283072Y-61399414D01*
X39423212Y-61501232D01*
X39577555Y-61579873D01*
X39742299Y-61633402D01*
X39913389Y-61660500D01*
X39913390Y-61660500D01*
X40086610Y-61660500D01*
X40086611Y-61660500D01*
X40257701Y-61633402D01*
X40422445Y-61579873D01*
X40576788Y-61501232D01*
X40716928Y-61399414D01*
X40839414Y-61276928D01*
X40941232Y-61136788D01*
X41019873Y-60982445D01*
X41073402Y-60817701D01*
X41100500Y-60646611D01*
X41100500Y-60473389D01*
X64299500Y-60473389D01*
X64299500Y-60646611D01*
X64326598Y-60817701D01*
X64380127Y-60982445D01*
X64458768Y-61136788D01*
X64560586Y-61276928D01*
X64683072Y-61399414D01*
X64823212Y-61501232D01*
X64977555Y-61579873D01*
X65142299Y-61633402D01*
X65313389Y-61660500D01*
X65313390Y-61660500D01*
X65486610Y-61660500D01*
X65486611Y-61660500D01*
X65657701Y-61633402D01*
X65822445Y-61579873D01*
X65976788Y-61501232D01*
X66116928Y-61399414D01*
X66239414Y-61276928D01*
X66341232Y-61136788D01*
X66419873Y-60982445D01*
X66473402Y-60817701D01*
X66500500Y-60646611D01*
X66500500Y-60473389D01*
X66473402Y-60302299D01*
X66419873Y-60137555D01*
X66341232Y-59983212D01*
X66239414Y-59843072D01*
X66116928Y-59720586D01*
X65976788Y-59618768D01*
X65822445Y-59540127D01*
X65657701Y-59486598D01*
X65657699Y-59486597D01*
X65657698Y-59486597D01*
X65526271Y-59465781D01*
X65486611Y-59459500D01*
X65313389Y-59459500D01*
X65273728Y-59465781D01*
X65142302Y-59486597D01*
X64977552Y-59540128D01*
X64823211Y-59618768D01*
X64743256Y-59676859D01*
X64683072Y-59720586D01*
X64683070Y-59720588D01*
X64683069Y-59720588D01*
X64560588Y-59843069D01*
X64560588Y-59843070D01*
X64560586Y-59843072D01*
X64516859Y-59903256D01*
X64458768Y-59983211D01*
X64380128Y-60137552D01*
X64326597Y-60302302D01*
X64299500Y-60473389D01*
X41100500Y-60473389D01*
X41073402Y-60302299D01*
X41019873Y-60137555D01*
X40941232Y-59983212D01*
X40839414Y-59843072D01*
X40716928Y-59720586D01*
X40576788Y-59618768D01*
X40422445Y-59540127D01*
X40257701Y-59486598D01*
X40257699Y-59486597D01*
X40257698Y-59486597D01*
X40126271Y-59465781D01*
X40086611Y-59459500D01*
X39913389Y-59459500D01*
X39873728Y-59465781D01*
X39742302Y-59486597D01*
X39577552Y-59540128D01*
X39423211Y-59618768D01*
X39343256Y-59676859D01*
X39283072Y-59720586D01*
X39283070Y-59720588D01*
X39283069Y-59720588D01*
X39160588Y-59843069D01*
X39160588Y-59843070D01*
X39160586Y-59843072D01*
X39116859Y-59903256D01*
X39058768Y-59983211D01*
X38980128Y-60137552D01*
X38926597Y-60302302D01*
X38899500Y-60473389D01*
X10500500Y-60473389D01*
X10500500Y-57870000D01*
X38910046Y-57870000D01*
X39522555Y-57870000D01*
X39500000Y-57954174D01*
X39500000Y-58085826D01*
X39522555Y-58170000D01*
X38910046Y-58170000D01*
X38927085Y-58277584D01*
X38980591Y-58442257D01*
X39059195Y-58596524D01*
X39160967Y-58736602D01*
X39283397Y-58859032D01*
X39423475Y-58960804D01*
X39577744Y-59039408D01*
X39742414Y-59092913D01*
X39850000Y-59109953D01*
X39850000Y-58497445D01*
X39934174Y-58520000D01*
X40065826Y-58520000D01*
X40150000Y-58497445D01*
X40150000Y-59109952D01*
X40257584Y-59092913D01*
X40257587Y-59092913D01*
X40422255Y-59039408D01*
X40576524Y-58960804D01*
X40716602Y-58859032D01*
X40839032Y-58736602D01*
X40940804Y-58596524D01*
X41019408Y-58442257D01*
X41072914Y-58277584D01*
X41089954Y-58170000D01*
X40477445Y-58170000D01*
X40500000Y-58085826D01*
X40500000Y-57954174D01*
X40494431Y-57933389D01*
X64299500Y-57933389D01*
X64299500Y-58106611D01*
X64326598Y-58277701D01*
X64380127Y-58442445D01*
X64458768Y-58596788D01*
X64560586Y-58736928D01*
X64683072Y-58859414D01*
X64823212Y-58961232D01*
X64977555Y-59039873D01*
X65142299Y-59093402D01*
X65313389Y-59120500D01*
X65313390Y-59120500D01*
X65486610Y-59120500D01*
X65486611Y-59120500D01*
X65657701Y-59093402D01*
X65822445Y-59039873D01*
X65976788Y-58961232D01*
X66116928Y-58859414D01*
X66239414Y-58736928D01*
X66341232Y-58596788D01*
X66419873Y-58442445D01*
X66473402Y-58277701D01*
X66500500Y-58106611D01*
X66500500Y-57933389D01*
X66473402Y-57762299D01*
X66419873Y-57597555D01*
X66341232Y-57443212D01*
X66239414Y-57303072D01*
X66116928Y-57180586D01*
X65976788Y-57078768D01*
X65822445Y-57000127D01*
X65657701Y-56946598D01*
X65657699Y-56946597D01*
X65657698Y-56946597D01*
X65526271Y-56925781D01*
X65486611Y-56919500D01*
X65313389Y-56919500D01*
X65273728Y-56925781D01*
X65142302Y-56946597D01*
X64977552Y-57000128D01*
X64823211Y-57078768D01*
X64743256Y-57136859D01*
X64683072Y-57180586D01*
X64683070Y-57180588D01*
X64683069Y-57180588D01*
X64560588Y-57303069D01*
X64560588Y-57303070D01*
X64560586Y-57303072D01*
X64560350Y-57303397D01*
X64458768Y-57443211D01*
X64380128Y-57597552D01*
X64326597Y-57762302D01*
X64316349Y-57827007D01*
X64299500Y-57933389D01*
X40494431Y-57933389D01*
X40477445Y-57870000D01*
X41089954Y-57870000D01*
X41072914Y-57762415D01*
X41019408Y-57597742D01*
X40940804Y-57443475D01*
X40839032Y-57303397D01*
X40716602Y-57180967D01*
X40576524Y-57079195D01*
X40422257Y-57000591D01*
X40257584Y-56947085D01*
X40150000Y-56930045D01*
X40150000Y-57542554D01*
X40065826Y-57520000D01*
X39934174Y-57520000D01*
X39850000Y-57542554D01*
X39850000Y-56930045D01*
X39742415Y-56947085D01*
X39577742Y-57000591D01*
X39423475Y-57079195D01*
X39283397Y-57180967D01*
X39160967Y-57303397D01*
X39059195Y-57443475D01*
X38980591Y-57597742D01*
X38927085Y-57762415D01*
X38910046Y-57870000D01*
X10500500Y-57870000D01*
X10500500Y-55393389D01*
X38899500Y-55393389D01*
X38899500Y-55566611D01*
X38926598Y-55737701D01*
X38980127Y-55902445D01*
X39058768Y-56056788D01*
X39160586Y-56196928D01*
X39283072Y-56319414D01*
X39423212Y-56421232D01*
X39577555Y-56499873D01*
X39742299Y-56553402D01*
X39913389Y-56580500D01*
X39913390Y-56580500D01*
X40086610Y-56580500D01*
X40086611Y-56580500D01*
X40257701Y-56553402D01*
X40422445Y-56499873D01*
X40576788Y-56421232D01*
X40716928Y-56319414D01*
X40839414Y-56196928D01*
X40941232Y-56056788D01*
X41019873Y-55902445D01*
X41073402Y-55737701D01*
X41100500Y-55566611D01*
X41100500Y-55393389D01*
X64299500Y-55393389D01*
X64299500Y-55566611D01*
X64326598Y-55737701D01*
X64380127Y-55902445D01*
X64458768Y-56056788D01*
X64560586Y-56196928D01*
X64683072Y-56319414D01*
X64823212Y-56421232D01*
X64977555Y-56499873D01*
X65142299Y-56553402D01*
X65313389Y-56580500D01*
X65313390Y-56580500D01*
X65486610Y-56580500D01*
X65486611Y-56580500D01*
X65657701Y-56553402D01*
X65822445Y-56499873D01*
X65976788Y-56421232D01*
X66116928Y-56319414D01*
X66239414Y-56196928D01*
X66341232Y-56056788D01*
X66419873Y-55902445D01*
X66473402Y-55737701D01*
X66500500Y-55566611D01*
X66500500Y-55393389D01*
X66473402Y-55222299D01*
X66419873Y-55057555D01*
X66341232Y-54903212D01*
X66239414Y-54763072D01*
X66116928Y-54640586D01*
X65976788Y-54538768D01*
X65822445Y-54460127D01*
X65657701Y-54406598D01*
X65657699Y-54406597D01*
X65657698Y-54406597D01*
X65526271Y-54385781D01*
X65486611Y-54379500D01*
X65313389Y-54379500D01*
X65273728Y-54385781D01*
X65142302Y-54406597D01*
X64977552Y-54460128D01*
X64823211Y-54538768D01*
X64743256Y-54596859D01*
X64683072Y-54640586D01*
X64683070Y-54640588D01*
X64683069Y-54640588D01*
X64560588Y-54763069D01*
X64560588Y-54763070D01*
X64560586Y-54763072D01*
X64516859Y-54823256D01*
X64458768Y-54903211D01*
X64380128Y-55057552D01*
X64326597Y-55222302D01*
X64299500Y-55393389D01*
X41100500Y-55393389D01*
X41073402Y-55222299D01*
X41019873Y-55057555D01*
X40941232Y-54903212D01*
X40839414Y-54763072D01*
X40716928Y-54640586D01*
X40576788Y-54538768D01*
X40422445Y-54460127D01*
X40257701Y-54406598D01*
X40257699Y-54406597D01*
X40257698Y-54406597D01*
X40126271Y-54385781D01*
X40086611Y-54379500D01*
X39913389Y-54379500D01*
X39873728Y-54385781D01*
X39742302Y-54406597D01*
X39577552Y-54460128D01*
X39423211Y-54538768D01*
X39343256Y-54596859D01*
X39283072Y-54640586D01*
X39283070Y-54640588D01*
X39283069Y-54640588D01*
X39160588Y-54763069D01*
X39160588Y-54763070D01*
X39160586Y-54763072D01*
X39116859Y-54823256D01*
X39058768Y-54903211D01*
X38980128Y-55057552D01*
X38926597Y-55222302D01*
X38899500Y-55393389D01*
X10500500Y-55393389D01*
X10500500Y-52853389D01*
X38899500Y-52853389D01*
X38899500Y-53026611D01*
X38926598Y-53197701D01*
X38980127Y-53362445D01*
X39058768Y-53516788D01*
X39160586Y-53656928D01*
X39283072Y-53779414D01*
X39423212Y-53881232D01*
X39577555Y-53959873D01*
X39742299Y-54013402D01*
X39913389Y-54040500D01*
X39913390Y-54040500D01*
X40086610Y-54040500D01*
X40086611Y-54040500D01*
X40257701Y-54013402D01*
X40422445Y-53959873D01*
X40576788Y-53881232D01*
X40716928Y-53779414D01*
X40839414Y-53656928D01*
X40941232Y-53516788D01*
X41019873Y-53362445D01*
X41073402Y-53197701D01*
X41100500Y-53026611D01*
X41100500Y-52853389D01*
X64299500Y-52853389D01*
X64299500Y-53026611D01*
X64326598Y-53197701D01*
X64380127Y-53362445D01*
X64458768Y-53516788D01*
X64560586Y-53656928D01*
X64683072Y-53779414D01*
X64823212Y-53881232D01*
X64977555Y-53959873D01*
X65142299Y-54013402D01*
X65313389Y-54040500D01*
X65313390Y-54040500D01*
X65486610Y-54040500D01*
X65486611Y-54040500D01*
X65657701Y-54013402D01*
X65822445Y-53959873D01*
X65976788Y-53881232D01*
X66116928Y-53779414D01*
X66239414Y-53656928D01*
X66341232Y-53516788D01*
X66419873Y-53362445D01*
X66473402Y-53197701D01*
X66500500Y-53026611D01*
X66500500Y-52853389D01*
X66473402Y-52682299D01*
X66419873Y-52517555D01*
X66341232Y-52363212D01*
X66239414Y-52223072D01*
X66116928Y-52100586D01*
X65976788Y-51998768D01*
X65822445Y-51920127D01*
X65657701Y-51866598D01*
X65657699Y-51866597D01*
X65657698Y-51866597D01*
X65526271Y-51845781D01*
X65486611Y-51839500D01*
X65313389Y-51839500D01*
X65273728Y-51845781D01*
X65142302Y-51866597D01*
X64977552Y-51920128D01*
X64823211Y-51998768D01*
X64743256Y-52056859D01*
X64683072Y-52100586D01*
X64683070Y-52100588D01*
X64683069Y-52100588D01*
X64560588Y-52223069D01*
X64560588Y-52223070D01*
X64560586Y-52223072D01*
X64516859Y-52283256D01*
X64458768Y-52363211D01*
X64380128Y-52517552D01*
X64326597Y-52682302D01*
X64299500Y-52853389D01*
X41100500Y-52853389D01*
X41073402Y-52682299D01*
X41019873Y-52517555D01*
X40941232Y-52363212D01*
X40839414Y-52223072D01*
X40716928Y-52100586D01*
X40576788Y-51998768D01*
X40422445Y-51920127D01*
X40257701Y-51866598D01*
X40257699Y-51866597D01*
X40257698Y-51866597D01*
X40126271Y-51845781D01*
X40086611Y-51839500D01*
X39913389Y-51839500D01*
X39873728Y-51845781D01*
X39742302Y-51866597D01*
X39577552Y-51920128D01*
X39423211Y-51998768D01*
X39343256Y-52056859D01*
X39283072Y-52100586D01*
X39283070Y-52100588D01*
X39283069Y-52100588D01*
X39160588Y-52223069D01*
X39160588Y-52223070D01*
X39160586Y-52223072D01*
X39116859Y-52283256D01*
X39058768Y-52363211D01*
X38980128Y-52517552D01*
X38926597Y-52682302D01*
X38899500Y-52853389D01*
X10500500Y-52853389D01*
X10500500Y-50313389D01*
X38899500Y-50313389D01*
X38899500Y-50486611D01*
X38926598Y-50657701D01*
X38980127Y-50822445D01*
X39058768Y-50976788D01*
X39160586Y-51116928D01*
X39283072Y-51239414D01*
X39423212Y-51341232D01*
X39577555Y-51419873D01*
X39742299Y-51473402D01*
X39913389Y-51500500D01*
X39913390Y-51500500D01*
X40086610Y-51500500D01*
X40086611Y-51500500D01*
X40257701Y-51473402D01*
X40422445Y-51419873D01*
X40576788Y-51341232D01*
X40716928Y-51239414D01*
X40839414Y-51116928D01*
X40941232Y-50976788D01*
X41019873Y-50822445D01*
X41073402Y-50657701D01*
X41100500Y-50486611D01*
X41100500Y-50313389D01*
X64299500Y-50313389D01*
X64299500Y-50486611D01*
X64326598Y-50657701D01*
X64380127Y-50822445D01*
X64458768Y-50976788D01*
X64560586Y-51116928D01*
X64683072Y-51239414D01*
X64823212Y-51341232D01*
X64977555Y-51419873D01*
X65142299Y-51473402D01*
X65313389Y-51500500D01*
X65313390Y-51500500D01*
X65486610Y-51500500D01*
X65486611Y-51500500D01*
X65657701Y-51473402D01*
X65822445Y-51419873D01*
X65976788Y-51341232D01*
X66116928Y-51239414D01*
X66239414Y-51116928D01*
X66341232Y-50976788D01*
X66419873Y-50822445D01*
X66473402Y-50657701D01*
X66500500Y-50486611D01*
X66500500Y-50313389D01*
X66473402Y-50142299D01*
X66419873Y-49977555D01*
X66341232Y-49823212D01*
X66239414Y-49683072D01*
X66116928Y-49560586D01*
X65976788Y-49458768D01*
X65822445Y-49380127D01*
X65657701Y-49326598D01*
X65657699Y-49326597D01*
X65657698Y-49326597D01*
X65526271Y-49305781D01*
X65486611Y-49299500D01*
X65313389Y-49299500D01*
X65273728Y-49305781D01*
X65142302Y-49326597D01*
X64977552Y-49380128D01*
X64823211Y-49458768D01*
X64743256Y-49516859D01*
X64683072Y-49560586D01*
X64683070Y-49560588D01*
X64683069Y-49560588D01*
X64560588Y-49683069D01*
X64560588Y-49683070D01*
X64560586Y-49683072D01*
X64516859Y-49743256D01*
X64458768Y-49823211D01*
X64380128Y-49977552D01*
X64326597Y-50142302D01*
X64299500Y-50313389D01*
X41100500Y-50313389D01*
X41073402Y-50142299D01*
X41019873Y-49977555D01*
X40941232Y-49823212D01*
X40839414Y-49683072D01*
X40716928Y-49560586D01*
X40576788Y-49458768D01*
X40422445Y-49380127D01*
X40257701Y-49326598D01*
X40257699Y-49326597D01*
X40257698Y-49326597D01*
X40126271Y-49305781D01*
X40086611Y-49299500D01*
X39913389Y-49299500D01*
X39873728Y-49305781D01*
X39742302Y-49326597D01*
X39577552Y-49380128D01*
X39423211Y-49458768D01*
X39343256Y-49516859D01*
X39283072Y-49560586D01*
X39283070Y-49560588D01*
X39283069Y-49560588D01*
X39160588Y-49683069D01*
X39160588Y-49683070D01*
X39160586Y-49683072D01*
X39116859Y-49743256D01*
X39058768Y-49823211D01*
X38980128Y-49977552D01*
X38926597Y-50142302D01*
X38899500Y-50313389D01*
X10500500Y-50313389D01*
X10500500Y-47773389D01*
X38899500Y-47773389D01*
X38899500Y-47946611D01*
X38926598Y-48117701D01*
X38980127Y-48282445D01*
X39058768Y-48436788D01*
X39160586Y-48576928D01*
X39283072Y-48699414D01*
X39423212Y-48801232D01*
X39577555Y-48879873D01*
X39742299Y-48933402D01*
X39913389Y-48960500D01*
X39913390Y-48960500D01*
X40086610Y-48960500D01*
X40086611Y-48960500D01*
X40257701Y-48933402D01*
X40422445Y-48879873D01*
X40576788Y-48801232D01*
X40716928Y-48699414D01*
X40839414Y-48576928D01*
X40941232Y-48436788D01*
X41019873Y-48282445D01*
X41073402Y-48117701D01*
X41100500Y-47946611D01*
X41100500Y-47773389D01*
X64299500Y-47773389D01*
X64299500Y-47946611D01*
X64326598Y-48117701D01*
X64380127Y-48282445D01*
X64458768Y-48436788D01*
X64560586Y-48576928D01*
X64683072Y-48699414D01*
X64823212Y-48801232D01*
X64977555Y-48879873D01*
X65142299Y-48933402D01*
X65313389Y-48960500D01*
X65313390Y-48960500D01*
X65486610Y-48960500D01*
X65486611Y-48960500D01*
X65657701Y-48933402D01*
X65822445Y-48879873D01*
X65976788Y-48801232D01*
X66116928Y-48699414D01*
X66239414Y-48576928D01*
X66341232Y-48436788D01*
X66419873Y-48282445D01*
X66473402Y-48117701D01*
X66500500Y-47946611D01*
X66500500Y-47773389D01*
X66473402Y-47602299D01*
X66419873Y-47437555D01*
X66341232Y-47283212D01*
X66239414Y-47143072D01*
X66116928Y-47020586D01*
X65976788Y-46918768D01*
X65822445Y-46840127D01*
X65657701Y-46786598D01*
X65657699Y-46786597D01*
X65657698Y-46786597D01*
X65526271Y-46765781D01*
X65486611Y-46759500D01*
X65313389Y-46759500D01*
X65273728Y-46765781D01*
X65142302Y-46786597D01*
X64977552Y-46840128D01*
X64823211Y-46918768D01*
X64743256Y-46976859D01*
X64683072Y-47020586D01*
X64683070Y-47020588D01*
X64683069Y-47020588D01*
X64560588Y-47143069D01*
X64560588Y-47143070D01*
X64560586Y-47143072D01*
X64516859Y-47203256D01*
X64458768Y-47283211D01*
X64380128Y-47437552D01*
X64326597Y-47602302D01*
X64299500Y-47773389D01*
X41100500Y-47773389D01*
X41073402Y-47602299D01*
X41019873Y-47437555D01*
X40941232Y-47283212D01*
X40839414Y-47143072D01*
X40716928Y-47020586D01*
X40576788Y-46918768D01*
X40422445Y-46840127D01*
X40257701Y-46786598D01*
X40257699Y-46786597D01*
X40257698Y-46786597D01*
X40126271Y-46765781D01*
X40086611Y-46759500D01*
X39913389Y-46759500D01*
X39873728Y-46765781D01*
X39742302Y-46786597D01*
X39577552Y-46840128D01*
X39423211Y-46918768D01*
X39343256Y-46976859D01*
X39283072Y-47020586D01*
X39283070Y-47020588D01*
X39283069Y-47020588D01*
X39160588Y-47143069D01*
X39160588Y-47143070D01*
X39160586Y-47143072D01*
X39116859Y-47203256D01*
X39058768Y-47283211D01*
X38980128Y-47437552D01*
X38926597Y-47602302D01*
X38899500Y-47773389D01*
X10500500Y-47773389D01*
X10500500Y-44930000D01*
X18910046Y-44930000D01*
X19522555Y-44930000D01*
X19500000Y-45014174D01*
X19500000Y-45145826D01*
X19522555Y-45230000D01*
X18910046Y-45230000D01*
X18927085Y-45337584D01*
X18980591Y-45502257D01*
X19059195Y-45656524D01*
X19160967Y-45796602D01*
X19283397Y-45919032D01*
X19423475Y-46020804D01*
X19577744Y-46099408D01*
X19742414Y-46152913D01*
X19850000Y-46169953D01*
X19850000Y-45557445D01*
X19934174Y-45580000D01*
X20065826Y-45580000D01*
X20150000Y-45557445D01*
X20150000Y-46169952D01*
X20257584Y-46152913D01*
X20257587Y-46152913D01*
X20422255Y-46099408D01*
X20576524Y-46020804D01*
X20716602Y-45919032D01*
X20839032Y-45796602D01*
X20940804Y-45656524D01*
X21019408Y-45502257D01*
X21072913Y-45337585D01*
X21089417Y-45233389D01*
X38899500Y-45233389D01*
X38899500Y-45406611D01*
X38926598Y-45577701D01*
X38980127Y-45742445D01*
X39058768Y-45896788D01*
X39160586Y-46036928D01*
X39283072Y-46159414D01*
X39423212Y-46261232D01*
X39577555Y-46339873D01*
X39742299Y-46393402D01*
X39913389Y-46420500D01*
X39913390Y-46420500D01*
X40086610Y-46420500D01*
X40086611Y-46420500D01*
X40257701Y-46393402D01*
X40422445Y-46339873D01*
X40576788Y-46261232D01*
X40716928Y-46159414D01*
X40839414Y-46036928D01*
X40941232Y-45896788D01*
X41019873Y-45742445D01*
X41073402Y-45577701D01*
X41100500Y-45406611D01*
X41100500Y-45233389D01*
X64299500Y-45233389D01*
X64299500Y-45406611D01*
X64326598Y-45577701D01*
X64380127Y-45742445D01*
X64458768Y-45896788D01*
X64560586Y-46036928D01*
X64683072Y-46159414D01*
X64823212Y-46261232D01*
X64977555Y-46339873D01*
X65142299Y-46393402D01*
X65313389Y-46420500D01*
X65313390Y-46420500D01*
X65486610Y-46420500D01*
X65486611Y-46420500D01*
X65657701Y-46393402D01*
X65822445Y-46339873D01*
X65976788Y-46261232D01*
X66116928Y-46159414D01*
X66239414Y-46036928D01*
X66341232Y-45896788D01*
X66419873Y-45742445D01*
X66473402Y-45577701D01*
X66500500Y-45406611D01*
X66500500Y-45233389D01*
X66473402Y-45062299D01*
X66419873Y-44897555D01*
X66341232Y-44743212D01*
X66239414Y-44603072D01*
X66116928Y-44480586D01*
X65976788Y-44378768D01*
X65822445Y-44300127D01*
X65657701Y-44246598D01*
X65657699Y-44246597D01*
X65657698Y-44246597D01*
X65526271Y-44225781D01*
X65486611Y-44219500D01*
X65313389Y-44219500D01*
X65273728Y-44225781D01*
X65142302Y-44246597D01*
X64977552Y-44300128D01*
X64823211Y-44378768D01*
X64743256Y-44436859D01*
X64683072Y-44480586D01*
X64683070Y-44480588D01*
X64683069Y-44480588D01*
X64560588Y-44603069D01*
X64560588Y-44603070D01*
X64560586Y-44603072D01*
X64552592Y-44614075D01*
X64458768Y-44743211D01*
X64380128Y-44897552D01*
X64326597Y-45062302D01*
X64300037Y-45230000D01*
X64299500Y-45233389D01*
X41100500Y-45233389D01*
X41073402Y-45062299D01*
X41019873Y-44897555D01*
X40941232Y-44743212D01*
X40839414Y-44603072D01*
X40716928Y-44480586D01*
X40576788Y-44378768D01*
X40422445Y-44300127D01*
X40257701Y-44246598D01*
X40257699Y-44246597D01*
X40257698Y-44246597D01*
X40126271Y-44225781D01*
X40086611Y-44219500D01*
X39913389Y-44219500D01*
X39873728Y-44225781D01*
X39742302Y-44246597D01*
X39577552Y-44300128D01*
X39423211Y-44378768D01*
X39343256Y-44436859D01*
X39283072Y-44480586D01*
X39283070Y-44480588D01*
X39283069Y-44480588D01*
X39160588Y-44603069D01*
X39160588Y-44603070D01*
X39160586Y-44603072D01*
X39152592Y-44614075D01*
X39058768Y-44743211D01*
X38980128Y-44897552D01*
X38926597Y-45062302D01*
X38900037Y-45230000D01*
X38899500Y-45233389D01*
X21089417Y-45233389D01*
X21089954Y-45230000D01*
X20477445Y-45230000D01*
X20500000Y-45145826D01*
X20500000Y-45014174D01*
X20477445Y-44930000D01*
X21089954Y-44930000D01*
X21072914Y-44822415D01*
X21019408Y-44657742D01*
X20940804Y-44503475D01*
X20839032Y-44363397D01*
X20716602Y-44240967D01*
X20576524Y-44139195D01*
X20422257Y-44060591D01*
X20257584Y-44007085D01*
X20150000Y-43990045D01*
X20150000Y-44602554D01*
X20065826Y-44580000D01*
X19934174Y-44580000D01*
X19850000Y-44602554D01*
X19850000Y-43990045D01*
X19742415Y-44007085D01*
X19577742Y-44060591D01*
X19423475Y-44139195D01*
X19283397Y-44240967D01*
X19160967Y-44363397D01*
X19059195Y-44503475D01*
X18980591Y-44657742D01*
X18927085Y-44822415D01*
X18910046Y-44930000D01*
X10500500Y-44930000D01*
X10500500Y-42453389D01*
X18899500Y-42453389D01*
X18899500Y-42626611D01*
X18926598Y-42797701D01*
X18980127Y-42962445D01*
X19058768Y-43116788D01*
X19160586Y-43256928D01*
X19283072Y-43379414D01*
X19423212Y-43481232D01*
X19577555Y-43559873D01*
X19742299Y-43613402D01*
X19913389Y-43640500D01*
X19913390Y-43640500D01*
X20086610Y-43640500D01*
X20086611Y-43640500D01*
X20257701Y-43613402D01*
X20422445Y-43559873D01*
X20576788Y-43481232D01*
X20716928Y-43379414D01*
X20839414Y-43256928D01*
X20941232Y-43116788D01*
X21019873Y-42962445D01*
X21073402Y-42797701D01*
X21089923Y-42693389D01*
X38899500Y-42693389D01*
X38899500Y-42866610D01*
X38914678Y-42962445D01*
X38926598Y-43037701D01*
X38980127Y-43202445D01*
X39058768Y-43356788D01*
X39160586Y-43496928D01*
X39283072Y-43619414D01*
X39423212Y-43721232D01*
X39577555Y-43799873D01*
X39742299Y-43853402D01*
X39913389Y-43880500D01*
X39913390Y-43880500D01*
X40086610Y-43880500D01*
X40086611Y-43880500D01*
X40257701Y-43853402D01*
X40422445Y-43799873D01*
X40576788Y-43721232D01*
X40716928Y-43619414D01*
X40839414Y-43496928D01*
X40941232Y-43356788D01*
X41019873Y-43202445D01*
X41073402Y-43037701D01*
X41100500Y-42866611D01*
X41100500Y-42693389D01*
X64299500Y-42693389D01*
X64299500Y-42866610D01*
X64314678Y-42962445D01*
X64326598Y-43037701D01*
X64380127Y-43202445D01*
X64458768Y-43356788D01*
X64560586Y-43496928D01*
X64683072Y-43619414D01*
X64823212Y-43721232D01*
X64977555Y-43799873D01*
X65142299Y-43853402D01*
X65313389Y-43880500D01*
X65313390Y-43880500D01*
X65486610Y-43880500D01*
X65486611Y-43880500D01*
X65657701Y-43853402D01*
X65822445Y-43799873D01*
X65976788Y-43721232D01*
X66116928Y-43619414D01*
X66239414Y-43496928D01*
X66341232Y-43356788D01*
X66419873Y-43202445D01*
X66473402Y-43037701D01*
X66500500Y-42866611D01*
X66500500Y-42693389D01*
X66473402Y-42522299D01*
X66419873Y-42357555D01*
X66341232Y-42203212D01*
X66239414Y-42063072D01*
X66116928Y-41940586D01*
X65976788Y-41838768D01*
X65822445Y-41760127D01*
X65657701Y-41706598D01*
X65657699Y-41706597D01*
X65657698Y-41706597D01*
X65526271Y-41685781D01*
X65486611Y-41679500D01*
X65313389Y-41679500D01*
X65273728Y-41685781D01*
X65142302Y-41706597D01*
X64977552Y-41760128D01*
X64823211Y-41838768D01*
X64743256Y-41896859D01*
X64683072Y-41940586D01*
X64683070Y-41940588D01*
X64683069Y-41940588D01*
X64560588Y-42063069D01*
X64560588Y-42063070D01*
X64560586Y-42063072D01*
X64521004Y-42117552D01*
X64458768Y-42203211D01*
X64380128Y-42357552D01*
X64326597Y-42522302D01*
X64299500Y-42693389D01*
X41100500Y-42693389D01*
X41073402Y-42522299D01*
X41019873Y-42357555D01*
X40941232Y-42203212D01*
X40839414Y-42063072D01*
X40716928Y-41940586D01*
X40576788Y-41838768D01*
X40422445Y-41760127D01*
X40257701Y-41706598D01*
X40257699Y-41706597D01*
X40257698Y-41706597D01*
X40126271Y-41685781D01*
X40086611Y-41679500D01*
X39913389Y-41679500D01*
X39873728Y-41685781D01*
X39742302Y-41706597D01*
X39577552Y-41760128D01*
X39423211Y-41838768D01*
X39343256Y-41896859D01*
X39283072Y-41940586D01*
X39283070Y-41940588D01*
X39283069Y-41940588D01*
X39160588Y-42063069D01*
X39160588Y-42063070D01*
X39160586Y-42063072D01*
X39121004Y-42117552D01*
X39058768Y-42203211D01*
X38980128Y-42357552D01*
X38926597Y-42522302D01*
X38899500Y-42693389D01*
X21089923Y-42693389D01*
X21100500Y-42626611D01*
X21100500Y-42453389D01*
X21073402Y-42282299D01*
X21019873Y-42117555D01*
X20941232Y-41963212D01*
X20839414Y-41823072D01*
X20716928Y-41700586D01*
X20576788Y-41598768D01*
X20422445Y-41520127D01*
X20257701Y-41466598D01*
X20257699Y-41466597D01*
X20257698Y-41466597D01*
X20126271Y-41445781D01*
X20086611Y-41439500D01*
X19913389Y-41439500D01*
X19873728Y-41445781D01*
X19742302Y-41466597D01*
X19577552Y-41520128D01*
X19423211Y-41598768D01*
X19343256Y-41656859D01*
X19283072Y-41700586D01*
X19283070Y-41700588D01*
X19283069Y-41700588D01*
X19160588Y-41823069D01*
X19160588Y-41823070D01*
X19160586Y-41823072D01*
X19116859Y-41883256D01*
X19058768Y-41963211D01*
X18980128Y-42117552D01*
X18926597Y-42282302D01*
X18899500Y-42453389D01*
X10500500Y-42453389D01*
X10500500Y-39125321D01*
X18899500Y-39125321D01*
X18899500Y-40874678D01*
X18914032Y-40947735D01*
X18914033Y-40947739D01*
X18914034Y-40947740D01*
X18969399Y-41030601D01*
X19042450Y-41079411D01*
X19052260Y-41085966D01*
X19052264Y-41085967D01*
X19125321Y-41100499D01*
X19125324Y-41100500D01*
X19125326Y-41100500D01*
X20874676Y-41100500D01*
X20874677Y-41100499D01*
X20947740Y-41085966D01*
X21030601Y-41030601D01*
X21085966Y-40947740D01*
X21100500Y-40874674D01*
X21100500Y-40153389D01*
X38899500Y-40153389D01*
X38899500Y-40326611D01*
X38926598Y-40497701D01*
X38980127Y-40662445D01*
X39058768Y-40816788D01*
X39160586Y-40956928D01*
X39283072Y-41079414D01*
X39423212Y-41181232D01*
X39577555Y-41259873D01*
X39742299Y-41313402D01*
X39913389Y-41340500D01*
X39913390Y-41340500D01*
X40086610Y-41340500D01*
X40086611Y-41340500D01*
X40257701Y-41313402D01*
X40422445Y-41259873D01*
X40576788Y-41181232D01*
X40716928Y-41079414D01*
X40839414Y-40956928D01*
X40941232Y-40816788D01*
X41019873Y-40662445D01*
X41073402Y-40497701D01*
X41100500Y-40326611D01*
X41100500Y-40153389D01*
X41090460Y-40090000D01*
X64310046Y-40090000D01*
X64922555Y-40090000D01*
X64900000Y-40174174D01*
X64900000Y-40305826D01*
X64922555Y-40390000D01*
X64310046Y-40390000D01*
X64327085Y-40497584D01*
X64380591Y-40662257D01*
X64459195Y-40816524D01*
X64560967Y-40956602D01*
X64683397Y-41079032D01*
X64823475Y-41180804D01*
X64977744Y-41259408D01*
X65142414Y-41312913D01*
X65250000Y-41329953D01*
X65250000Y-40717445D01*
X65334174Y-40740000D01*
X65465826Y-40740000D01*
X65550000Y-40717445D01*
X65550000Y-41329952D01*
X65657584Y-41312913D01*
X65657587Y-41312913D01*
X65822255Y-41259408D01*
X65976524Y-41180804D01*
X66116602Y-41079032D01*
X66239032Y-40956602D01*
X66340804Y-40816524D01*
X66419408Y-40662257D01*
X66472914Y-40497584D01*
X66489954Y-40390000D01*
X65877445Y-40390000D01*
X65900000Y-40305826D01*
X65900000Y-40174174D01*
X65877445Y-40090000D01*
X66489954Y-40090000D01*
X66472914Y-39982415D01*
X66419408Y-39817742D01*
X66340804Y-39663475D01*
X66239032Y-39523397D01*
X66116602Y-39400967D01*
X65976524Y-39299195D01*
X65822257Y-39220591D01*
X65657584Y-39167085D01*
X65550000Y-39150045D01*
X65550000Y-39762554D01*
X65465826Y-39740000D01*
X65334174Y-39740000D01*
X65250000Y-39762554D01*
X65250000Y-39150045D01*
X65142415Y-39167085D01*
X64977742Y-39220591D01*
X64823475Y-39299195D01*
X64683397Y-39400967D01*
X64560967Y-39523397D01*
X64459195Y-39663475D01*
X64380591Y-39817742D01*
X64327085Y-39982415D01*
X64310046Y-40090000D01*
X41090460Y-40090000D01*
X41073402Y-39982299D01*
X41019873Y-39817555D01*
X40941232Y-39663212D01*
X40839414Y-39523072D01*
X40716928Y-39400586D01*
X40576788Y-39298768D01*
X40422445Y-39220127D01*
X40257701Y-39166598D01*
X40257699Y-39166597D01*
X40257698Y-39166597D01*
X40126271Y-39145781D01*
X40086611Y-39139500D01*
X39913389Y-39139500D01*
X39873728Y-39145781D01*
X39742302Y-39166597D01*
X39577552Y-39220128D01*
X39423211Y-39298768D01*
X39343256Y-39356859D01*
X39283072Y-39400586D01*
X39283070Y-39400588D01*
X39283069Y-39400588D01*
X39160588Y-39523069D01*
X39160588Y-39523070D01*
X39160586Y-39523072D01*
X39160350Y-39523397D01*
X39058768Y-39663211D01*
X38980128Y-39817552D01*
X38926597Y-39982302D01*
X38916349Y-40047007D01*
X38899500Y-40153389D01*
X21100500Y-40153389D01*
X21100500Y-39125326D01*
X21100500Y-39125323D01*
X21100499Y-39125321D01*
X21085967Y-39052264D01*
X21085966Y-39052260D01*
X21030601Y-38969399D01*
X20947740Y-38914034D01*
X20947739Y-38914033D01*
X20947735Y-38914032D01*
X20874677Y-38899500D01*
X20874674Y-38899500D01*
X19125326Y-38899500D01*
X19125323Y-38899500D01*
X19052264Y-38914032D01*
X19052260Y-38914033D01*
X18969399Y-38969399D01*
X18914033Y-39052260D01*
X18914032Y-39052264D01*
X18899500Y-39125321D01*
X10500500Y-39125321D01*
X10500500Y-37613389D01*
X38899500Y-37613389D01*
X38899500Y-37786611D01*
X38926598Y-37957701D01*
X38980127Y-38122445D01*
X39058768Y-38276788D01*
X39160586Y-38416928D01*
X39283072Y-38539414D01*
X39423212Y-38641232D01*
X39577555Y-38719873D01*
X39742299Y-38773402D01*
X39913389Y-38800500D01*
X39913390Y-38800500D01*
X40086610Y-38800500D01*
X40086611Y-38800500D01*
X40257701Y-38773402D01*
X40422445Y-38719873D01*
X40576788Y-38641232D01*
X40716928Y-38539414D01*
X40839414Y-38416928D01*
X40941232Y-38276788D01*
X41019873Y-38122445D01*
X41073402Y-37957701D01*
X41100500Y-37786611D01*
X41100500Y-37613389D01*
X64299500Y-37613389D01*
X64299500Y-37786611D01*
X64326598Y-37957701D01*
X64380127Y-38122445D01*
X64458768Y-38276788D01*
X64560586Y-38416928D01*
X64683072Y-38539414D01*
X64823212Y-38641232D01*
X64977555Y-38719873D01*
X65142299Y-38773402D01*
X65313389Y-38800500D01*
X65313390Y-38800500D01*
X65486610Y-38800500D01*
X65486611Y-38800500D01*
X65657701Y-38773402D01*
X65822445Y-38719873D01*
X65976788Y-38641232D01*
X66116928Y-38539414D01*
X66239414Y-38416928D01*
X66341232Y-38276788D01*
X66419873Y-38122445D01*
X66473402Y-37957701D01*
X66500500Y-37786611D01*
X66500500Y-37613389D01*
X66473402Y-37442299D01*
X66419873Y-37277555D01*
X66341232Y-37123212D01*
X66239414Y-36983072D01*
X66116928Y-36860586D01*
X65976788Y-36758768D01*
X65822445Y-36680127D01*
X65657701Y-36626598D01*
X65657699Y-36626597D01*
X65657698Y-36626597D01*
X65526271Y-36605781D01*
X65486611Y-36599500D01*
X65313389Y-36599500D01*
X65273728Y-36605781D01*
X65142302Y-36626597D01*
X64977552Y-36680128D01*
X64823211Y-36758768D01*
X64743256Y-36816859D01*
X64683072Y-36860586D01*
X64683070Y-36860588D01*
X64683069Y-36860588D01*
X64560588Y-36983069D01*
X64560588Y-36983070D01*
X64560586Y-36983072D01*
X64548287Y-37000000D01*
X64458768Y-37123211D01*
X64380128Y-37277552D01*
X64326597Y-37442302D01*
X64299500Y-37613389D01*
X41100500Y-37613389D01*
X41073402Y-37442299D01*
X41019873Y-37277555D01*
X40941232Y-37123212D01*
X40839414Y-36983072D01*
X40716928Y-36860586D01*
X40576788Y-36758768D01*
X40422445Y-36680127D01*
X40257701Y-36626598D01*
X40257699Y-36626597D01*
X40257698Y-36626597D01*
X40126271Y-36605781D01*
X40086611Y-36599500D01*
X39913389Y-36599500D01*
X39873728Y-36605781D01*
X39742302Y-36626597D01*
X39577552Y-36680128D01*
X39423211Y-36758768D01*
X39343256Y-36816859D01*
X39283072Y-36860586D01*
X39283070Y-36860588D01*
X39283069Y-36860588D01*
X39160588Y-36983069D01*
X39160588Y-36983070D01*
X39160586Y-36983072D01*
X39148287Y-37000000D01*
X39058768Y-37123211D01*
X38980128Y-37277552D01*
X38926597Y-37442302D01*
X38899500Y-37613389D01*
X10500500Y-37613389D01*
X10500500Y-35073389D01*
X38899500Y-35073389D01*
X38899500Y-35246611D01*
X38926598Y-35417701D01*
X38980127Y-35582445D01*
X39058768Y-35736788D01*
X39160586Y-35876928D01*
X39283072Y-35999414D01*
X39423212Y-36101232D01*
X39577555Y-36179873D01*
X39742299Y-36233402D01*
X39913389Y-36260500D01*
X39913390Y-36260500D01*
X40086610Y-36260500D01*
X40086611Y-36260500D01*
X40257701Y-36233402D01*
X40422445Y-36179873D01*
X40576788Y-36101232D01*
X40716928Y-35999414D01*
X40839414Y-35876928D01*
X40941232Y-35736788D01*
X41019873Y-35582445D01*
X41073402Y-35417701D01*
X41100500Y-35246611D01*
X41100500Y-35073389D01*
X41073402Y-34902299D01*
X41019873Y-34737555D01*
X40941232Y-34583212D01*
X40839414Y-34443072D01*
X40716928Y-34320586D01*
X40576788Y-34218768D01*
X40422445Y-34140127D01*
X40257701Y-34086598D01*
X40257699Y-34086597D01*
X40257698Y-34086597D01*
X40126271Y-34065781D01*
X40086611Y-34059500D01*
X39913389Y-34059500D01*
X39873728Y-34065781D01*
X39742302Y-34086597D01*
X39577552Y-34140128D01*
X39423211Y-34218768D01*
X39343256Y-34276859D01*
X39283072Y-34320586D01*
X39283070Y-34320588D01*
X39283069Y-34320588D01*
X39160588Y-34443069D01*
X39160588Y-34443070D01*
X39160586Y-34443072D01*
X39116859Y-34503256D01*
X39058768Y-34583211D01*
X38980128Y-34737552D01*
X38926597Y-34902302D01*
X38899500Y-35073389D01*
X10500500Y-35073389D01*
X10500500Y-32533389D01*
X38899500Y-32533389D01*
X38899500Y-32706611D01*
X38926598Y-32877701D01*
X38980127Y-33042445D01*
X39058768Y-33196788D01*
X39160586Y-33336928D01*
X39283072Y-33459414D01*
X39423212Y-33561232D01*
X39577555Y-33639873D01*
X39742299Y-33693402D01*
X39913389Y-33720500D01*
X39913390Y-33720500D01*
X40086610Y-33720500D01*
X40086611Y-33720500D01*
X40257701Y-33693402D01*
X40422445Y-33639873D01*
X40576788Y-33561232D01*
X40716928Y-33459414D01*
X40839414Y-33336928D01*
X40941232Y-33196788D01*
X41019873Y-33042445D01*
X41073402Y-32877701D01*
X41100500Y-32706611D01*
X41100500Y-32533389D01*
X41073402Y-32362299D01*
X41019873Y-32197555D01*
X40941232Y-32043212D01*
X40839414Y-31903072D01*
X40716928Y-31780586D01*
X40576788Y-31678768D01*
X40422445Y-31600127D01*
X40257701Y-31546598D01*
X40257699Y-31546597D01*
X40257698Y-31546597D01*
X40126271Y-31525781D01*
X40086611Y-31519500D01*
X39913389Y-31519500D01*
X39873728Y-31525781D01*
X39742302Y-31546597D01*
X39577552Y-31600128D01*
X39423211Y-31678768D01*
X39343256Y-31736859D01*
X39283072Y-31780586D01*
X39283070Y-31780588D01*
X39283069Y-31780588D01*
X39160588Y-31903069D01*
X39160588Y-31903070D01*
X39160586Y-31903072D01*
X39116859Y-31963256D01*
X39058768Y-32043211D01*
X38980128Y-32197552D01*
X38926597Y-32362302D01*
X38899500Y-32533389D01*
X10500500Y-32533389D01*
X10500500Y-29993389D01*
X38899500Y-29993389D01*
X38899500Y-30166611D01*
X38926598Y-30337701D01*
X38980127Y-30502445D01*
X39058768Y-30656788D01*
X39160586Y-30796928D01*
X39283072Y-30919414D01*
X39423212Y-31021232D01*
X39577555Y-31099873D01*
X39742299Y-31153402D01*
X39913389Y-31180500D01*
X39913390Y-31180500D01*
X40086610Y-31180500D01*
X40086611Y-31180500D01*
X40257701Y-31153402D01*
X40422445Y-31099873D01*
X40576788Y-31021232D01*
X40716928Y-30919414D01*
X40839414Y-30796928D01*
X40941232Y-30656788D01*
X41019873Y-30502445D01*
X41073402Y-30337701D01*
X41100500Y-30166611D01*
X41100500Y-29993389D01*
X41073402Y-29822299D01*
X41019873Y-29657555D01*
X40941232Y-29503212D01*
X40839414Y-29363072D01*
X40716928Y-29240586D01*
X40576788Y-29138768D01*
X40422445Y-29060127D01*
X40257701Y-29006598D01*
X40257699Y-29006597D01*
X40257698Y-29006597D01*
X40126271Y-28985781D01*
X40086611Y-28979500D01*
X39913389Y-28979500D01*
X39873728Y-28985781D01*
X39742302Y-29006597D01*
X39577552Y-29060128D01*
X39423211Y-29138768D01*
X39343256Y-29196859D01*
X39283072Y-29240586D01*
X39283070Y-29240588D01*
X39283069Y-29240588D01*
X39160588Y-29363069D01*
X39160588Y-29363070D01*
X39160586Y-29363072D01*
X39116859Y-29423256D01*
X39058768Y-29503211D01*
X38980128Y-29657552D01*
X38926597Y-29822302D01*
X38899500Y-29993389D01*
X10500500Y-29993389D01*
X10500500Y-25878711D01*
X12149500Y-25878711D01*
X12149500Y-26121288D01*
X12181161Y-26361785D01*
X12243947Y-26596104D01*
X12287225Y-26700586D01*
X12336776Y-26820212D01*
X12458064Y-27030289D01*
X12458066Y-27030292D01*
X12458067Y-27030293D01*
X12605733Y-27222736D01*
X12605739Y-27222743D01*
X12777256Y-27394260D01*
X12777262Y-27394265D01*
X12969711Y-27541936D01*
X13179788Y-27663224D01*
X13403900Y-27756054D01*
X13638211Y-27818838D01*
X13818586Y-27842584D01*
X13878711Y-27850500D01*
X13878712Y-27850500D01*
X14121289Y-27850500D01*
X14169388Y-27844167D01*
X14361789Y-27818838D01*
X14596100Y-27756054D01*
X14820212Y-27663224D01*
X15030289Y-27541936D01*
X15145686Y-27453389D01*
X38899500Y-27453389D01*
X38899500Y-27626611D01*
X38926598Y-27797701D01*
X38980127Y-27962445D01*
X39058768Y-28116788D01*
X39160586Y-28256928D01*
X39283072Y-28379414D01*
X39423212Y-28481232D01*
X39577555Y-28559873D01*
X39742299Y-28613402D01*
X39913389Y-28640500D01*
X39913390Y-28640500D01*
X40086610Y-28640500D01*
X40086611Y-28640500D01*
X40257701Y-28613402D01*
X40422445Y-28559873D01*
X40576788Y-28481232D01*
X40716928Y-28379414D01*
X40839414Y-28256928D01*
X40941232Y-28116788D01*
X41019873Y-27962445D01*
X41073402Y-27797701D01*
X41100500Y-27626611D01*
X41100500Y-27453389D01*
X41073402Y-27282299D01*
X41019873Y-27117555D01*
X40941232Y-26963212D01*
X40839414Y-26823072D01*
X40716928Y-26700586D01*
X40576788Y-26598768D01*
X40422445Y-26520127D01*
X40257701Y-26466598D01*
X40257699Y-26466597D01*
X40257698Y-26466597D01*
X40126271Y-26445781D01*
X40086611Y-26439500D01*
X39913389Y-26439500D01*
X39873728Y-26445781D01*
X39742302Y-26466597D01*
X39577552Y-26520128D01*
X39423211Y-26598768D01*
X39343256Y-26656859D01*
X39283072Y-26700586D01*
X39283070Y-26700588D01*
X39283069Y-26700588D01*
X39160588Y-26823069D01*
X39160588Y-26823070D01*
X39160586Y-26823072D01*
X39116859Y-26883256D01*
X39058768Y-26963211D01*
X38980128Y-27117552D01*
X38926597Y-27282302D01*
X38914159Y-27360836D01*
X38899500Y-27453389D01*
X15145686Y-27453389D01*
X15222738Y-27394265D01*
X15222743Y-27394260D01*
X15256168Y-27360836D01*
X15394260Y-27222743D01*
X15394265Y-27222738D01*
X15541936Y-27030289D01*
X15663224Y-26820212D01*
X15756054Y-26596100D01*
X15818838Y-26361789D01*
X15850500Y-26121288D01*
X15850500Y-25878712D01*
X15849968Y-25874674D01*
X15818838Y-25638214D01*
X15818838Y-25638211D01*
X15756054Y-25403900D01*
X15663224Y-25179788D01*
X15541936Y-24969711D01*
X15394265Y-24777262D01*
X15394260Y-24777256D01*
X15222743Y-24605739D01*
X15222736Y-24605733D01*
X15030293Y-24458067D01*
X15030292Y-24458066D01*
X15030289Y-24458064D01*
X14820212Y-24336776D01*
X14820205Y-24336773D01*
X14596104Y-24243947D01*
X14592294Y-24242926D01*
X14361789Y-24181162D01*
X14361788Y-24181161D01*
X14361785Y-24181161D01*
X14121289Y-24149500D01*
X14121288Y-24149500D01*
X13878712Y-24149500D01*
X13878711Y-24149500D01*
X13638214Y-24181161D01*
X13403895Y-24243947D01*
X13179794Y-24336773D01*
X13179785Y-24336777D01*
X12969706Y-24458067D01*
X12777263Y-24605733D01*
X12777256Y-24605739D01*
X12605739Y-24777256D01*
X12605733Y-24777263D01*
X12458067Y-24969706D01*
X12336777Y-25179785D01*
X12336773Y-25179794D01*
X12243947Y-25403895D01*
X12181161Y-25638214D01*
X12149500Y-25878711D01*
X10500500Y-25878711D01*
X10500500Y-24125321D01*
X38899500Y-24125321D01*
X38899500Y-25874678D01*
X38914032Y-25947735D01*
X38914033Y-25947739D01*
X38914034Y-25947740D01*
X38969399Y-26030601D01*
X39051554Y-26085494D01*
X39052260Y-26085966D01*
X39052264Y-26085967D01*
X39125321Y-26100499D01*
X39125324Y-26100500D01*
X39125326Y-26100500D01*
X40874676Y-26100500D01*
X40874677Y-26100499D01*
X40947740Y-26085966D01*
X41030601Y-26030601D01*
X41085966Y-25947740D01*
X41100500Y-25874674D01*
X41100500Y-24125326D01*
X41100500Y-24125323D01*
X41100499Y-24125321D01*
X41085967Y-24052264D01*
X41085966Y-24052260D01*
X41030601Y-23969399D01*
X40947740Y-23914034D01*
X40947739Y-23914033D01*
X40947735Y-23914032D01*
X40874677Y-23899500D01*
X40874674Y-23899500D01*
X39125326Y-23899500D01*
X39125323Y-23899500D01*
X39052264Y-23914032D01*
X39052260Y-23914033D01*
X38969399Y-23969399D01*
X38914033Y-24052260D01*
X38914032Y-24052264D01*
X38899500Y-24125321D01*
X10500500Y-24125321D01*
X10500500Y-22624500D01*
X10520185Y-22557461D01*
X10572989Y-22511706D01*
X10624500Y-22500500D01*
X41876000Y-22500500D01*
X41943039Y-22520185D01*
G37*
%TD.AperFunction*%
%TD*%
M02*
