%TF.GenerationSoftware,KiCad,Pcbnew,10.0.1*%
%TF.CreationDate,2026-09-20T13:15:48-04:00*%
%TF.ProjectId,VoltWatch,566f6c74-5761-4746-9368-2e6b69636164,rev?*%
%TF.SameCoordinates,Original*%
%TF.FileFunction,Soldermask,Top*%
%TF.FilePolarity,Negative*%
%FSLAX46Y46*%
G04 Gerber Fmt 4.6, Leading zero omitted, Abs format (unit mm)*
G04 Created by KiCad (PCBNEW 10.0.1) date 2026-09-20 13:15:48*
%MOMM*%
%LPD*%
G01*
G04 APERTURE LIST*
G04 Aperture macros list*
%AMRoundRect*
0 Rectangle with rounded corners*
0 $1 Rounding radius*
0 $2 $3 $4 $5 $6 $7 $8 $9 X,Y pos of 4 corners*
0 Add a 4 corners polygon primitive as box body*
4,1,4,$2,$3,$4,$5,$6,$7,$8,$9,$2,$3,0*
0 Add four circle primitives for the rounded corners*
1,1,$1+$1,$2,$3*
1,1,$1+$1,$4,$5*
1,1,$1+$1,$6,$7*
1,1,$1+$1,$8,$9*
0 Add four rect primitives between the rounded corners*
20,1,$1+$1,$2,$3,$4,$5,0*
20,1,$1+$1,$4,$5,$6,$7,0*
20,1,$1+$1,$6,$7,$8,$9,0*
20,1,$1+$1,$8,$9,$2,$3,0*%
G04 Aperture macros list end*
%ADD10RoundRect,0.250000X-0.475000X0.250000X-0.475000X-0.250000X0.475000X-0.250000X0.475000X0.250000X0*%
%ADD11R,1.700000X1.700000*%
%ADD12O,1.700000X1.700000*%
%ADD13RoundRect,0.250000X-0.450000X0.262500X-0.450000X-0.262500X0.450000X-0.262500X0.450000X0.262500X0*%
%ADD14RoundRect,0.250000X-0.262500X-0.450000X0.262500X-0.450000X0.262500X0.450000X-0.262500X0.450000X0*%
%ADD15RoundRect,0.250000X-0.250000X-0.475000X0.250000X-0.475000X0.250000X0.475000X-0.250000X0.475000X0*%
%ADD16C,3.200000*%
G04 APERTURE END LIST*
D10*
%TO.C,C3*%
X36000000Y-39050000D03*
X36000000Y-40950000D03*
%TD*%
D11*
%TO.C,U2*%
X40000000Y-25000000D03*
D12*
X40000000Y-27540000D03*
X40000000Y-30080000D03*
X40000000Y-32620000D03*
X40000000Y-35160000D03*
X40000000Y-37700000D03*
X40000000Y-40240000D03*
X40000000Y-42780000D03*
X40000000Y-45320000D03*
X40000000Y-47860000D03*
X40000000Y-50400000D03*
X40000000Y-52940000D03*
X40000000Y-55480000D03*
X40000000Y-58020000D03*
X40000000Y-60560000D03*
X40000000Y-63100000D03*
X40000000Y-65640000D03*
X40000000Y-68180000D03*
X40000000Y-70720000D03*
D11*
X65400000Y-25000000D03*
D12*
X65400000Y-27540000D03*
X65400000Y-30080000D03*
X65400000Y-32620000D03*
X65400000Y-35160000D03*
X65400000Y-37700000D03*
X65400000Y-40240000D03*
X65400000Y-42780000D03*
X65400000Y-45320000D03*
X65400000Y-47860000D03*
X65400000Y-50400000D03*
X65400000Y-52940000D03*
X65400000Y-55480000D03*
X65400000Y-58020000D03*
X65400000Y-60560000D03*
X65400000Y-63100000D03*
X65400000Y-65640000D03*
X65400000Y-68180000D03*
X65400000Y-70720000D03*
%TD*%
D13*
%TO.C,R2*%
X32000000Y-39087500D03*
X32000000Y-40912500D03*
%TD*%
D11*
%TO.C,J1*%
X20000000Y-40000000D03*
D12*
X20000000Y-42540000D03*
X20000000Y-45080000D03*
%TD*%
D14*
%TO.C,R1*%
X30087500Y-35160000D03*
X31912500Y-35160000D03*
%TD*%
D15*
%TO.C,C1*%
X19050000Y-35000000D03*
X20950000Y-35000000D03*
%TD*%
D16*
%TO.C,H3*%
X78000000Y-26000000D03*
%TD*%
D15*
%TO.C,C2*%
X33050000Y-27000000D03*
X34950000Y-27000000D03*
%TD*%
D16*
%TO.C,H1*%
X14000000Y-26000000D03*
%TD*%
%TO.C,H4*%
X78000000Y-71000000D03*
%TD*%
%TO.C,H2*%
X14000000Y-71000000D03*
%TD*%
M02*
